<?xml version="1.0" encoding="utf-8"?>
<!-- Generator: Adobe Illustrator 19.0.0, SVG Export Plug-In . SVG Version: 6.00 Build 0)  -->
<svg version="1.1" id="Layer_1" xmlns="http://www.w3.org/2000/svg" xmlns:xlink="http://www.w3.org/1999/xlink" x="0px" y="0px"
	 viewBox="0 0 26.3 26.6" style="enable-background:new 0 0 26.3 26.6;" xml:space="preserve">
<style type="text/css">
	.st0{fill:#C53924;}
</style>
<g id="XMLID_867_">
	<path id="XMLID_870_" class="st0" d="M0,22.2V25v1.6h5.1V25v-2.8v-5.3c0-3.9,3.2-7.1,7.1-7.1h2c3.9,0,7.1,3.2,7.1,7.1v5.3V25v1.6
		h5.1V25v-2.8V6.8H0V22.2z"/>
	<path id="XMLID_869_" class="st0" d="M14.2,17.9c0,0,0.3-5.4-1-6.1c-1.3,2.4-4.9,3.8-4.9,7.3c0,2.7,2.2,4.9,4.9,4.9
		c4.1,0,6.5-4.2,3.6-8.5L14.2,17.9z"/>
	<rect id="XMLID_868_" x="0" class="st0" width="26.3" height="4.4"/>
</g>
</svg>
