<?xml version="1.0" encoding="utf-8"?>
<!-- Generator: Adobe Illustrator 19.0.0, SVG Export Plug-In . SVG Version: 6.00 Build 0)  -->
<svg version="1.1" id="Layer_1" xmlns="http://www.w3.org/2000/svg" xmlns:xlink="http://www.w3.org/1999/xlink" x="0px" y="0px"
	 viewBox="0 0 28.9 28.8" style="enable-background:new 0 0 28.9 28.8;" xml:space="preserve">
<style type="text/css">
	.st0{fill:#C53924;}
</style>
<g id="XMLID_863_">
	<path id="XMLID_865_" class="st0" d="M2.4,20L2.4,20v4.4c0,1.2,1,2.2,2.2,2.2h3.2l-2.2,2.2h3.1l2.2-2.2h7.2l2.2,2.2h3.1l-2.2-2.2
		h3.2c1.2,0,2.2-1,2.2-2.2v-3.1l0,0v-2.3H2.4V20z"/>
	<path id="XMLID_864_" class="st0" d="M26.7,14.6V5.5l0,0c0-3-2.5-5.5-5.5-5.5c-3,0-5.5,2.5-5.5,5.5l0,0v0.2
		c-1.3,0.5-2.2,1.7-2.2,3.1h6.6c0-1.4-0.9-2.7-2.2-3.1V5.5l0,0c0-1.8,1.5-3.3,3.3-3.3c1.8,0,3.3,1.5,3.3,3.3l0,0v9.1H0.2v2.2h28.6
		v-2.2L26.7,14.6L26.7,14.6z"/>
</g>
</svg>
