<?xml version="1.0" encoding="utf-8"?>
<!-- Generator: Adobe Illustrator 19.0.0, SVG Export Plug-In . SVG Version: 6.00 Build 0)  -->
<svg version="1.1" id="Layer_1" xmlns="http://www.w3.org/2000/svg" xmlns:xlink="http://www.w3.org/1999/xlink" x="0px" y="0px"
	 viewBox="0 0 28.4 25.1" style="enable-background:new 0 0 28.4 25.1;" xml:space="preserve">
<style type="text/css">
	.st0{fill:#C53924;}
</style>
<g id="XMLID_711_">
	<path id="XMLID_715_" class="st0" d="M20,12.8l2,2c0.3-0.7,0.3-1.6,0.3-2.2c0-1.7-0.7-4.5-3.6-5.3V10C19.7,10.5,20.2,11.9,20,12.8z
		"/>
	<path id="XMLID_714_" class="st0" d="M25.7,12.5c0,1.7-0.4,3.3-1.2,4.8l2,2c1.3-1.9,1.9-4.2,1.9-6.6c0-5.9-3.9-10.8-9.7-12.1v2.9
		C23.1,4.6,25.7,8.2,25.7,12.5z"/>
	<path id="XMLID_713_" class="st0" d="M27.5,23.7l-2.5-2.5l-0.1-0.1l0,0l-1.7-1.7L7.8,4L4.3,0.4L2.6,2.1l3.5,3.6l1,1L6.6,7.1H0v11.5
		h5.5l0,0l0,0L15.9,25v-9.8l5.2,5.3c-0.7,0.4-0.9,0.7-2.3,1v2.9c1.4-0.3,3-1,4.3-1.9l2.7,2.7L27.5,23.7L27.5,23.7L27.5,23.7z"/>
	<polygon id="XMLID_712_" class="st0" points="15.9,8.6 15.9,-0.2 11,3.7 	"/>
</g>
</svg>
