<?xml version="1.0" encoding="utf-8"?>
<!-- Generator: Adobe Illustrator 19.0.0, SVG Export Plug-In . SVG Version: 6.00 Build 0)  -->
<svg version="1.1" id="Layer_1" xmlns="http://www.w3.org/2000/svg" xmlns:xlink="http://www.w3.org/1999/xlink" x="0px" y="0px"
	 viewBox="0 0 24.7 32.7" style="enable-background:new 0 0 24.7 32.7;" xml:space="preserve">
<style type="text/css">
	.st0{fill:#C53924;}
</style>
<g id="XMLID_716_">
	<path id="XMLID_723_" class="st0" d="M12.4,25.2c2.6,0,4.8-2.1,4.8-4.8s-2.1-4.8-4.8-4.8s-4.8,2.1-4.8,4.8S9.7,25.2,12.4,25.2z"/>
	<path id="XMLID_720_" class="st0" d="M0,32.7h24.7V9.8H0V32.7z M12.4,12.4c4.4,0,7.9,3.6,7.9,7.9s-3.6,7.9-7.9,7.9
		s-7.9-3.6-7.9-7.9S8,12.4,12.4,12.4z"/>
	<path id="XMLID_717_" class="st0" d="M24.7,0H0v7.1h24.7V0z M22.1,5h-5.3V1.8h5.3V5z"/>
</g>
</svg>
