<?xml version="1.0" encoding="utf-8"?>
<!-- Generator: Adobe Illustrator 19.0.0, SVG Export Plug-In . SVG Version: 6.00 Build 0)  -->
<svg version="1.1" id="Layer_1" xmlns="http://www.w3.org/2000/svg" xmlns:xlink="http://www.w3.org/1999/xlink" x="0px" y="0px"
	 viewBox="0 0 110.2 129.3" style="enable-background:new 0 0 110.2 129.3;" xml:space="preserve">
<style type="text/css">
	.st0{clip-path:url(#XMLID_301_);fill:#42403F;}
	.st1{clip-path:url(#XMLID_301_);fill:#C53924;}
	.st2{clip-path:url(#XMLID_301_);fill:#FF0000;}
	.st3{fill:#42403F;}
	.st4{fill:#FFFFFF;}
</style>
<g id="XMLID_1676_">
	<g id="XMLID_1679_">
		<defs>
			<rect id="XMLID_1680_" x="-23.6" y="-24.8" width="150" height="115.7"/>
		</defs>
		<clipPath id="XMLID_301_">
			<use xlink:href="#XMLID_1680_"  style="overflow:visible;"/>
		</clipPath>
		<path id="XMLID_1698_" class="st0" d="M161.1,165.9l20-34.8l-20-35H51.3c2.2-0.8,3.7-2.8,3.7-5.2c0-2.5-1.6-4.6-3.9-5.3v-0.2
			c1-8.5,5.6-11.1,6.1-11.4l1.6,0c0.4,0,0.7,0,1.1-0.1l0.5,0v0c1.5-0.1,3-0.5,4.5-1c10.5-3.6,16.1-15,12.5-25.5
			c-1.9-5.5-6-9.7-11-11.8v0L30.1,18.4c-0.2,1.4-0.3,2.8-0.3,4c0,8.1,3.1,13.6,8,17.3c4.3,3.2,10.1,4.8,16.6,5.2v3.3
			c-7-0.4-13.5-2.2-18.5-5.9c-5.7-4.2-9.4-10.9-9.3-19.9c0-1.7,0.2-3.6,0.4-5.5l-5.4-2.6c0,0-4.8,19.4,9,32.9
			c9.7,7.9,22.9,6.4,22.9,6.4s-11.2,7-27.3,0.1L-0.1,74.1l47.7,0v11.5c-2.2,0.8-3.8,2.8-3.8,5.3c0,2.4,1.6,4.5,3.7,5.2H-80.7
			l20,34.7l-20,35.1H47.7v5.9c-2.2,0.7-3.9,2.8-3.9,5.3c0,3.1,2.5,5.6,5.6,5.6c3.1,0,5.6-2.5,5.6-5.6c0-2.5-1.6-4.6-3.9-5.3v-5.9
			H161.1z M-74.9,162.6l18.1-31.7l-18-31.3h234.1l18.1,31.6l-18.1,31.5H-74.9z M73,37c6.9,0,12.9-4.2,15.5-10.1H76.4
			c-3.8,0-6.8-3.1-6.8-6.8c0-3.8,3.1-6.8,6.8-6.8h12C85.8,7.3,79.9,3.1,73,3.1C63.6,3.1,56,10.7,56,20.1C56,29.4,63.6,37,73,37z"/>
		<path id="XMLID_1697_" class="st0" d="M89.9,20.1c0-2.4-0.5-4.7-1.4-6.8v-0.1l21.6,6.8l-21.6,6.8C89.4,24.8,89.9,22.5,89.9,20.1z"
			/>
		<path id="XMLID_1696_" class="st0" d="M84,21.7c-0.9,0-1.7-0.7-1.7-1.7c0-0.9,0.7-1.7,1.7-1.7h1.7c-0.6-1.6-2.1-2.7-3.9-2.7
			c-2.3,0-4.2,1.9-4.2,4.2c0,2.3,1.9,4.2,4.2,4.2c1.7,0,3.1-1,3.8-2.4H84z"/>
		<path id="XMLID_1695_" class="st1" d="M88.4,13.2c-4.9-10.5-14.9-10-14.9-10C63.4,3,57.2,6.5,51.9-0.2C50,7.6,53,11.4,57.6,13.2
			C57.6,13.2,88.4,13.2,88.4,13.2z"/>
		<path id="XMLID_1694_" class="st1" d="M78,54.7c0.2,0,0.3,0,0.5,0C78.2,62.8,73,70.3,64.9,73c-1.5,0.5-3,0.8-4.5,1v0l-0.5,0
			c-0.4,0-0.7,0.1-1.1,0.1h-1.5C58,63.3,67,54.7,78,54.7z"/>
		<path id="XMLID_1681_" class="st2" d="M157.5,102.3H-69.9l16.6,28.5l-16.4,28.9h227.4l16.4-28.7L157.5,102.3z M-11.2,136.7
			c-0.6,1.5-1.5,2.8-2.7,3.9c-1.1,1.1-2.5,2-4,2.6c-1.5,0.6-3.2,0.9-5,0.9c-1.8,0-3.5,0-5.2-0.1c-1.7-0.1-3.4-0.1-5.1-0.1
			c-0.2,0-0.7,0-1.5,0c-0.8,0-1.7,0-2.7,0.1c-0.9,0-1.8,0-2.7,0c-0.8,0-1.3,0-1.5,0c0-0.5,0-0.9,0-1.3c0-0.4,0.1-0.9,0.1-1.3
			c0.4-0.1,0.8-0.3,1.2-0.4c0.4-0.1,0.8-0.3,1.2-0.4c0.7-0.2,1.2-0.5,1.6-0.9c0.4-0.4,0.6-1,0.8-2l2.7-22.2c0.1-0.7,0.1-1.2-0.1-1.6
			c-0.1-0.4-0.6-0.8-1.5-1l-2.4-0.8l0.6-2.7c1.8,0,3.8,0,5.9,0h12.3c0.9,0,1.7,0,2.5,0c0.8,0,1.6,0,2.4-0.1h0.7c0.2,0,0.5,0,0.8-0.1
			c0.1,0.1,0.1,0.1,0.2,0.1c0.1,0,0.1,0.1,0.2,0.1c-0.2,1.6-0.3,3.3-0.5,4.9c-0.2,1.6-0.4,3.3-0.5,4.9l-2.3,0.3l-1-3.8
			c-0.2-0.7-0.4-1.2-0.8-1.5c-0.4-0.2-1-0.4-1.9-0.4l-7.3-0.2l-1.1,8.6c0.3,0,0.7-0.1,1.2-0.1c0.5,0,0.9-0.1,1.4-0.1
			c0.5,0,1-0.1,1.5-0.1c0.5,0,0.9,0,1.3,0c4.1,0,7.1,0.9,9.1,2.6c2,1.7,3,4.1,3,7C-10.2,133.6-10.6,135.2-11.2,136.7z M12.6,143.7
			c-1.2,0.6-2.3,0.9-3.3,0.9c-1.4,0-2.3-0.3-2.9-1c-0.6-0.7-1-1.8-1.2-3.4c-0.2-1.5-0.3-3.4-0.5-5.6c-0.1-2.3-0.3-4.6-0.4-7H4.1
			c-1.4,2.8-2.7,5.6-4.1,8.3c-1.3,2.7-2.6,5.2-3.7,7.4c-0.2,0.4-0.3,0.6-0.5,0.8c-0.2,0.1-0.5,0.2-1.1,0.2c-0.8,0-1.6,0.1-2.3,0.1
			c-0.7,0-1.3,0.1-1.9,0.2c-0.1-0.1-0.2-0.2-0.3-0.3c-0.1-0.1-0.2-0.3-0.4-0.6c2.3-3.8,4.6-7.5,6.9-11.3c2.3-3.8,4.6-7.6,6.9-11.4
			c0.1-0.2,0.3-0.4,0.4-0.6c0.1-0.2,0.4-0.3,0.7-0.3c0.7-0.2,1.4-0.3,2.1-0.4c0.7-0.1,1.4-0.2,2.1-0.4c0.4,0.2,0.7,0.3,0.8,0.5
			c0.1,1.6,0.2,3.4,0.4,5.3c0.2,1.9,0.3,3.8,0.5,5.8c0.2,1.7,0.3,3.3,0.5,4.8c0.2,1.5,0.4,2.9,0.6,4.1c0.6-0.1,1.1-0.3,1.5-0.5
			c0.4-0.2,0.9-0.4,1.5-0.7c0.2,0.4,0.4,0.7,0.6,1.1c0.2,0.3,0.4,0.7,0.7,1.1C15,142.1,13.8,143.1,12.6,143.7z M43.1,143.6
			c-1.4,0.6-2.7,1-3.9,1c-1.3,0-2.3-0.3-2.9-0.8c-0.6-0.5-0.9-1.3-0.9-2.4c0-0.7,0.1-1.5,0.2-2.5c0.1-1,0.3-2,0.5-3.1h-0.2
			c-0.7,1-1.4,2-2.3,3c-0.8,1-1.8,2-2.7,2.8c-1,0.9-2,1.6-3.1,2.1c-1.1,0.6-2.2,0.8-3.3,0.8c-1.3,0-2.4-0.4-3.1-1.1
			c-0.8-0.7-1.1-1.7-1.1-3c0-0.6,0.1-1.5,0.2-2.7c0.2-1.2,0.3-2.5,0.6-4c0.3-1.5,0.5-3.1,0.9-4.8c0.3-1.7,0.6-3.4,0.9-5h0
			c-0.6,0.1-1.3,0.2-1.9,0.4c-0.6,0.2-1.3,0.5-2,0.8l-1.3-1.9c1.2-1.3,2.5-2.3,4-3.1c1.5-0.7,2.9-1.1,4.2-1.1c1.2,0,2.2,0.3,2.8,0.9
			c0.6,0.6,0.9,1.6,0.8,2.9c-0.1,0.5-0.2,1.1-0.3,1.9c-0.1,0.8-0.3,1.7-0.5,2.7c-0.2,1-0.4,2-0.6,3c-0.2,1-0.4,2-0.5,2.9
			c-0.1,0.9-0.3,1.8-0.4,2.5c-0.1,0.7-0.1,1.3-0.1,1.6c0,0.5,0.1,0.9,0.3,1.2c0.2,0.3,0.6,0.4,1,0.4c0.5,0,1.2-0.3,1.8-0.9
			c0.7-0.6,1.4-1.3,2-2.1c0.7-0.8,1.3-1.6,1.8-2.5c0.6-0.8,1-1.5,1.3-2c0.3-0.5,0.5-0.9,0.8-1.4c0.3-0.5,0.5-0.9,0.6-1.3
			c0.1-0.2,0.2-0.7,0.4-1.3c0.1-0.6,0.3-1.3,0.4-2.1c0.1-0.8,0.3-1.5,0.4-2.3c0.1-0.8,0.2-1.4,0.3-2c0.1-0.3,0.2-0.5,0.3-0.7
			c0.2-0.2,0.5-0.3,0.9-0.4c0.9-0.1,1.7-0.3,2.6-0.5c0.8-0.2,1.5-0.4,2.1-0.5c0.2,0.1,0.3,0.1,0.5,0.2c0.2,0.1,0.3,0.2,0.4,0.4
			c-0.3,1.8-0.6,3.5-0.9,4.9c-0.3,1.5-0.5,3-0.7,4.4c-0.2,1.5-0.5,3.1-0.7,4.8c-0.2,1.7-0.5,3.6-0.9,5.8c0.5-0.1,1-0.2,1.6-0.4
			c0.6-0.2,1.3-0.4,1.9-0.8l1.4,2C45.8,142,44.5,142.9,43.1,143.6z M69.6,132.5c0.8,1,1.2,2,1.2,3c0,1.3-0.5,2.6-1.3,3.7
			c-0.9,1.1-2,2.1-3.4,2.9c-1.4,0.8-3,1.4-4.8,1.9c-1.8,0.4-3.5,0.7-5.2,0.7c-1.5,0-2.7-0.1-3.7-0.4c-1-0.3-1.7-0.6-2.3-1
			c-0.6-0.4-1-0.8-1.2-1.3c-0.2-0.5-0.4-0.9-0.4-1.3c0-0.3,0.1-0.7,0.3-1.1c0.2-0.4,0.5-0.8,0.9-1.1c0.4-0.4,1-0.7,1.7-0.9
			c0.7-0.3,1.6-0.4,2.6-0.5c0.1,1.5,0.6,2.5,1.4,3.1c0.8,0.6,1.7,0.9,2.7,0.9c1,0,1.8-0.1,2.6-0.4c0.7-0.3,1.4-0.7,1.8-1.2
			c0.5-0.5,0.9-1,1.1-1.7c0.2-0.6,0.4-1.3,0.4-2c0-0.9-0.5-1.7-1.4-2.3c-0.9-0.6-2.4-0.9-4.3-0.9h-2.3l-0.5-2.7l0.5-0.6
			c1.6,0,3-0.2,4.1-0.5c1.1-0.3,2-0.6,2.7-1c0.7-0.4,1.2-0.8,1.4-1.3c0.3-0.5,0.4-0.9,0.4-1.3c0-0.6-0.3-1.2-0.8-1.6
			c-0.5-0.4-1.3-0.7-2.4-0.7c-1,0-2.2,0.2-3.6,0.5c-1.3,0.3-2.8,0.8-4.3,1.5l-1.5-2.6c1-0.7,2.1-1.3,3.1-1.7c1-0.5,2-0.8,3-1.1
			c1-0.3,1.9-0.5,2.8-0.6c0.9-0.1,1.6-0.2,2.4-0.2c1.5,0,2.8,0.1,3.9,0.5c1,0.3,1.9,0.7,2.6,1.2c0.7,0.5,1.1,1.1,1.4,1.7
			c0.3,0.6,0.4,1.3,0.4,2c0,1.2-0.5,2.3-1.5,3.5c-1,1.1-2.4,1.9-4.2,2.5C67.5,130.8,68.8,131.5,69.6,132.5z M99.2,150.3
			c-3.8-1.6-7-6.4-9.2-10.7c-0.2-0.4-0.4-0.8-0.6-1.2c-1.7-3.6-2.7-6.5-2.7-6.5c-0.6,0.6-1,1.2-1.4,1.8c-0.3,0.5-0.6,1.2-0.8,2.1
			l-1.1,6.9c-0.1,0.3-0.2,0.5-0.3,0.7c-0.2,0.2-0.5,0.3-0.9,0.4c-0.8,0.1-1.6,0.3-2.5,0.5c-0.9,0.2-1.6,0.4-2.2,0.5
			c-0.2-0.1-0.3-0.1-0.5-0.2c-0.2-0.1-0.3-0.2-0.3-0.4c0.8-4.4,1.4-8.4,1.9-11.8c0.5-3.4,0.9-6.2,1.2-8.3c-0.5,0.1-1.1,0.2-1.6,0.3
			c-0.5,0.2-1.1,0.4-1.8,0.7l-1.3-2c1.2-1.3,2.6-2.3,4-2.9c1.4-0.6,2.7-1,3.9-1c1.1,0,2,0.2,2.7,0.7c0.6,0.5,1,1.3,1,2.5
			c0,0.3,0,0.7-0.1,1.2c-0.1,0.5-0.1,1.1-0.2,1.7c-0.1,0.6-0.2,1.2-0.3,1.9c-0.1,0.7-0.2,1.3-0.4,1.9l0.2,0.1
			c0.8-1.3,1.8-2.5,2.8-3.7c1-1.2,2-2.2,3.1-3.1c1.1-0.9,2.1-1.6,3.2-2.1c1.1-0.5,2.2-0.8,3.3-0.8c1.2,0,2.2,0.3,2.9,0.8
			c0.7,0.5,1.1,1.3,1.1,2.2c0,0.2,0,0.5-0.1,0.8c-0.1,0.3-0.2,0.7-0.4,1c-0.2,0.4-0.5,0.7-0.9,1.1c-0.4,0.4-0.9,0.7-1.5,1
			c-0.4-0.9-1-1.5-1.7-1.8c-0.7-0.3-1.3-0.5-1.9-0.5c-0.8,0-1.6,0.3-2.3,0.9c-0.8,0.6-1.6,1.3-2.5,2.2c0.5,1.5,1.1,2.9,1.8,4.4
			c0,0.1,0.1,0.2,0.2,0.4c4.1,9.8,9.2,19.1,20.2,17.9C108.7,152.5,103.3,152,99.2,150.3z M125.4,135.1c-0.7,2-1.6,3.6-2.9,5
			c-1.3,1.4-2.8,2.5-4.7,3.3c-1.8,0.8-3.9,1.2-6.3,1.2c-3,0-5.3-0.9-6.9-2.6c-1.6-1.7-2.3-4.1-2.3-7c0-2.4,0.4-4.6,1.2-6.5
			c0.8-1.9,1.9-3.6,3.2-5c1.3-1.4,2.9-2.4,4.7-3.2c1.8-0.7,3.6-1.1,5.6-1.1c1.5,0,2.9,0.2,4.1,0.7c1.2,0.5,2.2,1.1,3,1.9
			c0.8,0.8,1.4,1.8,1.8,3c0.4,1.2,0.6,2.4,0.6,3.8C126.4,131,126.1,133.1,125.4,135.1z M148.5,128.2c-0.7,0.9-1.6,1.8-2.8,2.6
			c-1.2,0.8-2.6,1.4-4.2,2c-1.6,0.6-3.3,1.1-5.1,1.6c0,0.3,0,0.5,0,0.8v0.7c0,0.6,0,1.2,0.2,1.7c0.1,0.5,0.3,1,0.5,1.4
			c0.2,0.4,0.5,0.7,0.8,1c0.3,0.2,0.8,0.4,1.3,0.4c1.3,0,2.5-0.3,3.7-0.9c1.2-0.6,2.6-1.5,4-2.8l1.8,1.9c-0.5,0.6-1.1,1.3-1.9,2
			c-0.8,0.7-1.7,1.4-2.7,2c-1,0.6-2.1,1.1-3.2,1.5c-1.2,0.4-2.4,0.6-3.6,0.6c-2.5,0-4.3-0.7-5.6-2.1c-1.3-1.4-2-3.6-2-6.5
			c0-1.5,0.2-3.1,0.6-4.9c0.4-1.7,1-3.3,1.7-4.7c0.4-0.8,1.1-1.7,2-2.5c0.9-0.9,1.9-1.7,3-2.4c1.1-0.7,2.3-1.3,3.5-1.8
			c1.2-0.5,2.4-0.7,3.5-0.7c1.8,0,3.2,0.6,4.3,1.7c1,1.2,1.6,2.6,1.7,4.3C149.6,126.3,149.2,127.3,148.5,128.2z M141.8,123
			c-1.1,0-2.1,0.7-3.1,2.2c-1,1.5-1.6,3.6-2,6.2l0.1,0.1c0.8-0.2,1.6-0.4,2.5-0.7c0.9-0.3,1.6-0.7,2.3-1.2c0.7-0.5,1.2-1,1.7-1.6
			c0.4-0.6,0.6-1.3,0.6-2.1c0-0.9-0.3-1.6-0.7-2.1C142.7,123.3,142.3,123,141.8,123z M-24.6,126.6c-1.2,0-2.4,0.1-3.6,0.3
			c-0.2,1.7-0.5,3.4-0.7,5c-0.2,1.7-0.4,3.3-0.6,5.1c0,0.1,0,0.2,0,0.3c0,0.1,0,0.2,0,0.2c0,0.9,0.4,1.6,1.1,1.8
			c0.7,0.3,1.7,0.4,2.9,0.4c1.3,0,2.5-0.2,3.5-0.6c1-0.4,1.9-0.9,2.5-1.6c0.7-0.7,1.2-1.5,1.5-2.4c0.3-0.9,0.5-1.9,0.5-2.9
			c0-1.7-0.6-3.1-1.7-4.1C-20.5,127.1-22.2,126.6-24.6,126.6z M115.8,122.7c-1,0-1.9,0.3-2.7,0.9c-0.8,0.6-1.5,1.5-2,2.6
			c-0.6,1.1-1,2.4-1.3,3.8c-0.3,1.4-0.4,3-0.4,4.6c0,2,0.3,3.6,0.8,4.8c0.6,1.2,1.5,1.8,2.9,1.8c1,0,1.9-0.3,2.7-1
			c0.8-0.6,1.5-1.5,2-2.6c0.5-1.1,1-2.4,1.2-3.9c0.3-1.5,0.4-3.1,0.4-4.8c0-2-0.3-3.5-1-4.6C117.8,123.2,116.9,122.7,115.8,122.7z"
			/>
	</g>
	<path id="XMLID_1678_" class="st3" d="M67.3,103c0,9.7-17.5,26.3-17.5,26.3S32.3,112.6,32.3,103s7.8-17.5,17.5-17.5
		S67.3,93.3,67.3,103z"/>
	<circle id="XMLID_1677_" class="st4" cx="50.1" cy="102.2" r="5.2"/>
</g>
</svg>
