<?xml version="1.0" encoding="utf-8"?>
<!-- Generator: Adobe Illustrator 19.0.0, SVG Export Plug-In . SVG Version: 6.00 Build 0)  -->
<svg version="1.1" id="Layer_1" xmlns="http://www.w3.org/2000/svg" xmlns:xlink="http://www.w3.org/1999/xlink" x="0px" y="0px"
	 viewBox="0 0 169.9 135.6" style="enable-background:new 0 0 169.9 135.6;" xml:space="preserve">
<style type="text/css">
	.st0{fill:#42403F;}
	.st1{fill:#C53924;}
</style>
<g id="XMLID_373_">
	<path id="XMLID_1156_" class="st0" d="M156.9,108.7l13-22.6l-13-22.7H85.6c1.4-0.5,2.4-1.8,2.4-3.4c0-1.6-1.1-3-2.5-3.4v-0.1
		c0.7-5.5,3.6-7.2,3.9-7.4l1,0c0.2,0,0.5,0,0.7,0l0.3,0v0c1-0.1,2-0.3,3-0.6c6.8-2.3,10.5-9.7,8.1-16.6c-1.2-3.6-3.9-6.3-7.1-7.7
		c0,0,0,0,0,0L71.8,12.8c-0.1,0.9-0.2,1.8-0.2,2.6c0,5.3,2,8.8,5.2,11.2c2.8,2.1,6.6,3.1,10.8,3.4v2.1c-4.6-0.3-8.8-1.4-12-3.8
		c-3.7-2.7-6.1-7.1-6.1-12.9c0-1.1,0.1-2.3,0.3-3.6l-3.5-1.7c0,0-3.1,12.6,5.9,21.4c6.3,5.1,14.9,4.2,14.9,4.2s-7.3,4.6-17.8,0
		L52.1,49l31,0v7.5c-1.4,0.5-2.4,1.8-2.4,3.4c0,1.6,1,2.9,2.4,3.4H-0.3l13,22.6l-13,22.8h83.5v3.8c-1.5,0.5-2.5,1.8-2.5,3.4
		c0,2,1.6,3.6,3.6,3.6c2,0,3.6-1.6,3.6-3.6c0-1.6-1.1-3-2.5-3.4v-3.8H156.9z M3.5,106.5l11.7-20.6L3.5,65.5h152.2l11.7,20.5
		l-11.7,20.5H3.5z M99.6,24.9c4.5,0,8.4-2.7,10.1-6.6h-7.8c-2.5,0-4.4-2-4.4-4.4c0-2.5,2-4.4,4.4-4.4h7.8c-1.7-3.9-5.6-6.5-10.1-6.5
		c-6.1,0-11,4.9-11,11C88.6,20,93.5,24.9,99.6,24.9z"/>
	<g id="XMLID_1068_">
		<path id="XMLID_414_" class="st0" d="M4.4,133.1c-0.4,0-0.8,0-1.2-0.1c-0.4-0.1-0.7-0.2-1-0.3l0.2-0.7c0.3,0.1,0.6,0.2,0.9,0.3
			c0.3,0.1,0.6,0.1,0.9,0.1c0.6,0,1-0.1,1.3-0.3c0.3-0.2,0.5-0.5,0.5-1c0-0.2,0-0.4-0.1-0.5c-0.1-0.1-0.2-0.2-0.3-0.3
			c-0.1-0.1-0.3-0.1-0.5-0.2c-0.2,0-0.3,0-0.5,0h-1v-0.7h0.8c0.1,0,0.3,0,0.5,0c0.2,0,0.3-0.1,0.4-0.1c0.1-0.1,0.2-0.2,0.3-0.3
			c0.1-0.1,0.1-0.3,0.1-0.5c0-0.3-0.1-0.5-0.3-0.7c-0.2-0.2-0.5-0.2-1-0.2c-0.2,0-0.4,0-0.7,0c-0.2,0-0.5,0.1-0.7,0.2v1H2.5v-1.6
			c0.3-0.1,0.6-0.2,1.1-0.3c0.4-0.1,0.8-0.1,1.2-0.1c0.7,0,1.2,0.1,1.6,0.4c0.4,0.3,0.6,0.7,0.6,1.2c0,0.4-0.1,0.6-0.3,0.9
			c-0.2,0.2-0.5,0.4-0.7,0.5v0c0.4,0.1,0.6,0.3,0.9,0.5c0.2,0.3,0.3,0.6,0.3,1c0,0.3-0.1,0.6-0.2,0.9c-0.1,0.3-0.3,0.5-0.6,0.6
			c-0.2,0.2-0.5,0.3-0.9,0.4C5.1,133,4.8,133.1,4.4,133.1z"/>
		<path id="XMLID_1151_" class="st0" d="M12.9,132.2h1l0.1,0.6c-0.1,0-0.2,0.1-0.3,0.1c-0.1,0-0.2,0.1-0.3,0.1c-0.1,0-0.2,0-0.3,0.1
			c-0.1,0-0.2,0-0.3,0c-0.2,0-0.4,0-0.6-0.1c-0.1-0.1-0.2-0.3-0.2-0.6c0,0,0,0,0,0c0,0,0,0,0,0c-0.2,0.2-0.5,0.4-0.7,0.5
			c-0.2,0.1-0.4,0.2-0.6,0.2c-0.2,0.1-0.3,0.1-0.5,0.1c-0.1,0-0.3,0-0.4,0c-0.4,0-0.6-0.1-0.9-0.2c-0.2-0.1-0.4-0.3-0.6-0.4
			c-0.1-0.2-0.2-0.4-0.3-0.6c0-0.2-0.1-0.4-0.1-0.6c0-0.5,0.2-1,0.6-1.3c0.4-0.3,1-0.5,1.7-0.6l1.6-0.1v-0.4c0-0.5-0.1-0.9-0.3-1.1
			c-0.2-0.2-0.5-0.3-1-0.3c-0.3,0-0.6,0-0.9,0.1c-0.3,0.1-0.6,0.1-1,0.3c0-0.1-0.1-0.2-0.1-0.3c0-0.1-0.1-0.2-0.1-0.4
			c0.4-0.2,0.7-0.3,1.2-0.4c0.4-0.1,0.8-0.1,1.2-0.1c0.7,0,1.2,0.2,1.5,0.5c0.4,0.3,0.5,0.8,0.5,1.6V132.2z M10.3,130.1
			c-0.4,0-0.7,0.1-0.9,0.3c-0.2,0.2-0.3,0.4-0.3,0.7c0,0.4,0.1,0.6,0.3,0.8c0.2,0.2,0.5,0.2,0.9,0.2c0.3,0,0.5-0.1,0.8-0.2
			c0.3-0.1,0.6-0.3,0.8-0.5V130L10.3,130.1z"/>
		<path id="XMLID_1137_" class="st0" d="M14.4,133v-0.7h0.7v-4.7h-0.6v-0.7h4.9v1.8h-0.8v-1.1h-2.5v4.7H17v0.7H14.4z"/>
		<path id="XMLID_1121_" class="st0" d="M25.2,129.9c0,0.4,0,0.8-0.1,1.2c-0.1,0.4-0.2,0.7-0.5,1c-0.2,0.3-0.5,0.5-0.9,0.7
			c-0.4,0.2-0.8,0.3-1.4,0.3c-0.5,0-0.9-0.1-1.3-0.3c-0.3-0.2-0.6-0.4-0.8-0.7c-0.2-0.3-0.4-0.6-0.4-1c-0.1-0.4-0.1-0.8-0.1-1.2
			c0-0.4,0.1-0.8,0.2-1.2c0.1-0.4,0.3-0.7,0.5-1c0.2-0.3,0.5-0.6,0.9-0.7c0.4-0.2,0.8-0.3,1.3-0.3c0.5,0,1,0.1,1.3,0.3
			c0.3,0.2,0.6,0.4,0.8,0.7c0.2,0.3,0.4,0.6,0.4,1C25.2,129.1,25.2,129.5,25.2,129.9z M24.2,129.9c0-0.3,0-0.6-0.1-0.8
			c0-0.3-0.1-0.5-0.2-0.8c-0.1-0.2-0.3-0.4-0.5-0.6c-0.2-0.2-0.5-0.2-0.8-0.2c-0.3,0-0.6,0.1-0.9,0.2c-0.2,0.1-0.4,0.3-0.5,0.6
			c-0.1,0.2-0.2,0.5-0.3,0.8c0,0.3-0.1,0.6-0.1,0.9c0,0.3,0,0.6,0.1,0.9c0,0.3,0.1,0.5,0.2,0.7c0.1,0.2,0.3,0.4,0.5,0.5
			c0.2,0.1,0.5,0.2,0.9,0.2c0.3,0,0.6-0.1,0.8-0.2c0.2-0.1,0.4-0.3,0.5-0.5c0.1-0.2,0.2-0.5,0.2-0.7
			C24.1,130.5,24.2,130.2,24.2,129.9z"/>
		<path id="XMLID_1118_" class="st0" d="M25.8,134.9h1v-7.3h-1v-0.8h1.9v0.6l0,0c0.2-0.2,0.5-0.4,0.9-0.5c0.4-0.1,0.7-0.2,1-0.2
			c0.4,0,0.8,0.1,1.1,0.2c0.3,0.2,0.5,0.4,0.7,0.7c0.2,0.3,0.3,0.6,0.4,1c0.1,0.4,0.1,0.8,0.1,1.2c0,0.5,0,0.9-0.1,1.3
			c-0.1,0.4-0.2,0.8-0.4,1.1c-0.2,0.3-0.5,0.5-0.8,0.7c-0.3,0.2-0.7,0.3-1.2,0.3c-0.2,0-0.5,0-0.8-0.1c-0.3-0.1-0.6-0.2-0.9-0.3v2.2
			h1v0.8h-3.1V134.9z M29.4,132.2c0.2,0,0.4,0,0.6-0.1c0.2-0.1,0.4-0.2,0.5-0.4c0.1-0.2,0.3-0.4,0.3-0.7c0.1-0.3,0.1-0.7,0.1-1.2
			c0-0.4,0-0.8-0.1-1.1c-0.1-0.3-0.2-0.5-0.3-0.7c-0.1-0.2-0.3-0.3-0.5-0.3c-0.2-0.1-0.4-0.1-0.6-0.1c-0.2,0-0.3,0-0.5,0.1
			c-0.2,0-0.3,0.1-0.5,0.2c-0.1,0.1-0.3,0.1-0.4,0.2c-0.1,0.1-0.2,0.1-0.3,0.2v3.5c0.1,0.1,0.2,0.1,0.3,0.2c0.1,0.1,0.3,0.1,0.4,0.1
			c0.1,0,0.3,0.1,0.4,0.1C29.1,132.2,29.2,132.2,29.4,132.2z"/>
		<path id="XMLID_1115_" class="st0" d="M38.3,129.9c0,0.4,0,0.8-0.1,1.2c-0.1,0.4-0.2,0.7-0.5,1c-0.2,0.3-0.5,0.5-0.9,0.7
			c-0.4,0.2-0.8,0.3-1.4,0.3c-0.5,0-0.9-0.1-1.3-0.3c-0.3-0.2-0.6-0.4-0.8-0.7c-0.2-0.3-0.4-0.6-0.4-1c-0.1-0.4-0.1-0.8-0.1-1.2
			c0-0.4,0.1-0.8,0.2-1.2c0.1-0.4,0.3-0.7,0.5-1c0.2-0.3,0.5-0.6,0.9-0.7c0.3-0.2,0.8-0.3,1.3-0.3c0.5,0,1,0.1,1.3,0.3
			c0.3,0.2,0.6,0.4,0.8,0.7c0.2,0.3,0.4,0.6,0.4,1C38.3,129.1,38.3,129.5,38.3,129.9z M37.3,129.9c0-0.3,0-0.6-0.1-0.8
			c0-0.3-0.1-0.5-0.2-0.8c-0.1-0.2-0.3-0.4-0.5-0.6c-0.2-0.2-0.5-0.2-0.8-0.2c-0.3,0-0.6,0.1-0.9,0.2c-0.2,0.1-0.4,0.3-0.5,0.6
			c-0.1,0.2-0.2,0.5-0.3,0.8c0,0.3-0.1,0.6-0.1,0.9c0,0.3,0,0.6,0.1,0.9c0,0.3,0.1,0.5,0.2,0.7c0.1,0.2,0.3,0.4,0.5,0.5
			c0.2,0.1,0.5,0.2,0.9,0.2c0.3,0,0.6-0.1,0.8-0.2c0.2-0.1,0.4-0.3,0.5-0.5c0.1-0.2,0.2-0.5,0.2-0.7
			C37.2,130.5,37.3,130.2,37.3,129.9z"/>
		<path id="XMLID_1112_" class="st0" d="M44.5,132.2h0.6v2.5h-0.8V133h-4.8v1.7h-0.8v-2.5h0.6c0.2-0.2,0.4-0.4,0.5-0.7
			c0.1-0.3,0.2-0.7,0.3-1.1c0.1-0.4,0.1-0.8,0.1-1.3c0-0.4,0-0.8,0-1.2v-0.4h-0.8v-0.7h5L44.5,132.2z M41.2,127.5v0.4
			c0,0.4,0,0.8,0,1.2c0,0.4-0.1,0.8-0.1,1.2c-0.1,0.4-0.1,0.8-0.2,1.1c-0.1,0.3-0.2,0.6-0.4,0.8h3v-4.7H41.2z"/>
		<path id="XMLID_1110_" class="st0" d="M51.6,126.8v5.4h0.9v0.6c-0.2,0.1-0.4,0.1-0.6,0.2c-0.2,0-0.4,0.1-0.5,0.1
			c-0.3,0-0.5-0.1-0.7-0.2c-0.1-0.1-0.2-0.4-0.2-0.7v-2.1h-3v2.9h-1v-5.5h-0.8v-0.7h1.9v2.6h3v-2.6H51.6z"/>
		<path id="XMLID_1106_" class="st0" d="M54.7,126.8v2.5h1.7c0.4,0,0.7,0.1,1,0.2c0.3,0.1,0.5,0.2,0.7,0.4c0.2,0.2,0.3,0.4,0.4,0.6
			c0.1,0.2,0.1,0.5,0.1,0.7c0,0.3,0,0.6-0.2,0.8c-0.1,0.2-0.2,0.4-0.4,0.6c-0.2,0.2-0.4,0.3-0.6,0.4c-0.2,0.1-0.5,0.1-0.8,0.1h-2.8
			v-5.5h-1v-0.7H54.7z M54.7,130v2.3h1.6c0.4,0,0.7-0.1,0.9-0.3c0.2-0.2,0.3-0.5,0.3-0.8c0-0.4-0.1-0.7-0.4-0.9
			c-0.2-0.2-0.6-0.3-0.9-0.3H54.7z M58.7,127.5v-0.7h1.7v5.4h0.9v0.6c-0.2,0.1-0.3,0.1-0.6,0.2c-0.2,0-0.4,0.1-0.5,0.1
			c-0.3,0-0.5-0.1-0.7-0.3c-0.1-0.2-0.2-0.5-0.2-0.9v-4.4H58.7z"/>
		<path id="XMLID_1103_" class="st0" d="M66.7,128.2c0,0-0.1,0.2-0.3,0.4c-0.2,0.2-0.3,0.5-0.5,0.9c-0.2,0.3-0.4,0.7-0.7,1.1
			c-0.2,0.4-0.5,0.8-0.7,1.1c-0.2,0.3-0.4,0.6-0.6,0.9c-0.2,0.2-0.3,0.4-0.3,0.4h-1v-5.4h-0.9v-0.7h1.9v4.7h0.1
			c0.1-0.2,0.2-0.3,0.3-0.5c0.1-0.2,0.2-0.3,0.3-0.5l1.3-2.1l1.1-1.7h1c0,0.9,0,1.8,0,2.7c0,0.9,0,1.8,0,2.7h0.9v0.6
			c-0.2,0.1-0.4,0.1-0.6,0.2c-0.2,0-0.4,0.1-0.5,0.1c-0.3,0-0.5-0.1-0.6-0.2c-0.1-0.1-0.2-0.4-0.2-0.6L66.7,128.2L66.7,128.2z
			 M65.1,126c-0.2,0-0.4,0-0.6-0.1c-0.2-0.1-0.4-0.2-0.5-0.3c-0.2-0.1-0.3-0.3-0.5-0.5c-0.1-0.2-0.3-0.3-0.4-0.5l0.6-0.4
			c0.2,0.3,0.5,0.6,0.7,0.8c0.3,0.2,0.5,0.3,0.8,0.3c0.1,0,0.2,0,0.3,0c0.1,0,0.2,0,0.4-0.1c0.1-0.1,0.3-0.2,0.5-0.3
			c0.2-0.1,0.4-0.3,0.6-0.5l0.3,0.3c-0.4,0.5-0.7,0.9-1.1,1.1C65.8,125.9,65.5,126,65.1,126z"/>
		<path id="XMLID_1099_" class="st0" d="M75.2,129.7l-1.8-2.2l-0.8,0l-0.1-0.6c0.1-0.1,0.2-0.1,0.4-0.2c0.2,0,0.3-0.1,0.5-0.1
			c0.2,0,0.3,0,0.4,0.1c0.1,0,0.2,0.2,0.4,0.3l2,2.6v0.2l-2.1,2.9c-0.1,0.1-0.2,0.3-0.4,0.3c-0.1,0-0.3,0.1-0.4,0.1
			c-0.1,0-0.3,0-0.5,0c-0.2,0-0.3-0.1-0.5-0.2v-0.5l0.9-0.1L75.2,129.7z M78.3,132.2v0.7h-2.6v-0.7h0.8v-4.7h-0.8v-0.8h2.6v0.8h-0.8
			v4.7H78.3z M80.7,132.2l0.9,0.1v0.5c-0.1,0.1-0.3,0.1-0.5,0.2c-0.2,0-0.3,0-0.5,0c-0.2,0-0.3,0-0.4-0.1c-0.1-0.1-0.2-0.2-0.4-0.3
			l-2.1-2.9v-0.2l2-2.6c0.1-0.2,0.2-0.3,0.4-0.3c0.1-0.1,0.3-0.1,0.4-0.1c0.1,0,0.3,0,0.4,0.1c0.2,0,0.3,0.1,0.4,0.2l0,0.6l-0.8,0
			l-1.8,2.2L80.7,132.2z"/>
		<path id="XMLID_1097_" class="st0" d="M86.9,128.2c0,0-0.1,0.2-0.3,0.4c-0.2,0.2-0.3,0.5-0.5,0.9c-0.2,0.3-0.4,0.7-0.7,1.1
			c-0.2,0.4-0.5,0.8-0.7,1.1c-0.2,0.3-0.4,0.6-0.6,0.9c-0.2,0.2-0.2,0.4-0.3,0.4h-1v-5.4H82v-0.7h1.9v4.7h0c0.1-0.2,0.2-0.3,0.3-0.5
			c0.1-0.2,0.2-0.3,0.3-0.5l1.3-2.1l1.1-1.7h1c0,0.9,0,1.8,0,2.7c0,0.9,0,1.8,0,2.7h0.9v0.6c-0.2,0.1-0.4,0.1-0.6,0.2
			c-0.2,0-0.4,0.1-0.5,0.1c-0.3,0-0.5-0.1-0.6-0.2c-0.1-0.1-0.2-0.4-0.2-0.6L86.9,128.2L86.9,128.2z"/>
		<path id="XMLID_1095_" class="st0" d="M93,133v-0.7h0.8v-4.7h-2v0.5c0,0.7,0,1.3-0.1,1.9c0,0.6-0.1,1.1-0.3,1.5
			c-0.2,0.5-0.4,0.8-0.7,1.1c-0.3,0.3-0.7,0.5-1.2,0.7l-0.3-0.8c0.3-0.2,0.6-0.4,0.8-0.6c0.2-0.2,0.4-0.5,0.5-0.8
			c0.1-0.3,0.2-0.7,0.2-1.2c0-0.5,0-1,0-1.6v-0.7h-1v-0.7h5v5.4h0.8v0.7H93z"/>
		<path id="XMLID_1092_" class="st0" d="M101.8,129.9c0,0.4,0,0.8-0.1,1.2c-0.1,0.4-0.2,0.7-0.5,1c-0.2,0.3-0.5,0.5-0.9,0.7
			c-0.4,0.2-0.8,0.3-1.4,0.3c-0.5,0-0.9-0.1-1.3-0.3c-0.3-0.2-0.6-0.4-0.8-0.7c-0.2-0.3-0.4-0.6-0.4-1c-0.1-0.4-0.1-0.8-0.1-1.2
			c0-0.4,0.1-0.8,0.2-1.2c0.1-0.4,0.3-0.7,0.5-1c0.2-0.3,0.5-0.6,0.9-0.7c0.4-0.2,0.8-0.3,1.3-0.3c0.5,0,1,0.1,1.3,0.3
			c0.3,0.2,0.6,0.4,0.8,0.7c0.2,0.3,0.4,0.6,0.4,1C101.8,129.1,101.8,129.5,101.8,129.9z M100.8,129.9c0-0.3,0-0.6-0.1-0.8
			c0-0.3-0.1-0.5-0.2-0.8c-0.1-0.2-0.3-0.4-0.5-0.6c-0.2-0.2-0.5-0.2-0.8-0.2c-0.3,0-0.6,0.1-0.9,0.2c-0.2,0.1-0.4,0.3-0.5,0.6
			c-0.1,0.2-0.2,0.5-0.3,0.8c-0.1,0.3-0.1,0.6-0.1,0.9c0,0.3,0,0.6,0.1,0.9c0,0.3,0.1,0.5,0.2,0.7c0.1,0.2,0.3,0.4,0.5,0.5
			c0.2,0.1,0.5,0.2,0.9,0.2c0.3,0,0.6-0.1,0.8-0.2c0.2-0.1,0.4-0.3,0.5-0.5c0.1-0.2,0.2-0.5,0.2-0.7
			C100.7,130.5,100.8,130.2,100.8,129.9z"/>
		<path id="XMLID_1089_" class="st0" d="M107.4,128.2c0,0-0.1,0.2-0.3,0.4c-0.2,0.2-0.3,0.5-0.5,0.9c-0.2,0.3-0.4,0.7-0.7,1.1
			c-0.3,0.4-0.5,0.8-0.7,1.1c-0.2,0.3-0.4,0.6-0.6,0.9c-0.2,0.2-0.3,0.4-0.3,0.4h-1v-5.4h-0.9v-0.7h1.9v4.7h0.1
			c0.1-0.2,0.2-0.3,0.3-0.5c0.1-0.2,0.2-0.3,0.3-0.5l1.3-2.1l1.1-1.7h1c0,0.9,0,1.8,0,2.7c0,0.9,0,1.8,0,2.7h0.9v0.6
			c-0.2,0.1-0.4,0.1-0.6,0.2c-0.2,0-0.4,0.1-0.5,0.1c-0.3,0-0.5-0.1-0.6-0.2c-0.1-0.1-0.2-0.4-0.2-0.6L107.4,128.2L107.4,128.2z
			 M105.8,126c-0.2,0-0.4,0-0.6-0.1c-0.2-0.1-0.4-0.2-0.5-0.3c-0.2-0.1-0.3-0.3-0.5-0.5c-0.1-0.2-0.3-0.3-0.4-0.5l0.6-0.4
			c0.2,0.3,0.5,0.6,0.7,0.8c0.3,0.2,0.5,0.3,0.8,0.3c0.1,0,0.2,0,0.3,0c0.1,0,0.2,0,0.4-0.1c0.2-0.1,0.3-0.2,0.5-0.3
			c0.2-0.1,0.4-0.3,0.6-0.5l0.3,0.3c-0.4,0.5-0.7,0.9-1.1,1.1C106.5,125.9,106.1,126,105.8,126z"/>
		<path id="XMLID_1086_" class="st0" d="M113.2,132.2h0.9v-4.7h-1v-0.7h2v5.4h0.8v0.7h-2.7V132.2z M118.3,132.2l0.9,0.1v0.5
			c-0.1,0.1-0.3,0.1-0.4,0.2c-0.2,0-0.3,0-0.5,0c-0.2,0-0.3,0-0.4-0.1c-0.1-0.1-0.2-0.2-0.4-0.3l-2.2-2.9v-0.2l2.1-2.6
			c0.1-0.2,0.2-0.3,0.4-0.3c0.1-0.1,0.3-0.1,0.4-0.1c0.1,0,0.3,0,0.4,0.1c0.2,0,0.3,0.1,0.4,0.2l0,0.6l-0.8,0l-1.8,2.2L118.3,132.2z
			"/>
		<path id="XMLID_1083_" class="st0" d="M125.3,129.9c0,0.4,0,0.8-0.1,1.2c-0.1,0.4-0.2,0.7-0.5,1c-0.2,0.3-0.5,0.5-0.9,0.7
			c-0.4,0.2-0.8,0.3-1.4,0.3c-0.5,0-0.9-0.1-1.3-0.3c-0.3-0.2-0.6-0.4-0.8-0.7c-0.2-0.3-0.4-0.6-0.4-1c-0.1-0.4-0.1-0.8-0.1-1.2
			c0-0.4,0-0.8,0.2-1.2c0.1-0.4,0.3-0.7,0.5-1c0.2-0.3,0.5-0.6,0.9-0.7c0.4-0.2,0.8-0.3,1.3-0.3c0.5,0,0.9,0.1,1.3,0.3
			c0.3,0.2,0.6,0.4,0.8,0.7c0.2,0.3,0.3,0.6,0.4,1C125.2,129.1,125.3,129.5,125.3,129.9z M124.2,129.9c0-0.3,0-0.6-0.1-0.8
			c0-0.3-0.1-0.5-0.2-0.8c-0.1-0.2-0.3-0.4-0.5-0.6c-0.2-0.2-0.5-0.2-0.8-0.2c-0.3,0-0.6,0.1-0.9,0.2c-0.2,0.1-0.4,0.3-0.5,0.6
			c-0.1,0.2-0.2,0.5-0.3,0.8c-0.1,0.3-0.1,0.6-0.1,0.9c0,0.3,0,0.6,0.1,0.9c0,0.3,0.1,0.5,0.2,0.7c0.1,0.2,0.3,0.4,0.5,0.5
			c0.2,0.1,0.5,0.2,0.9,0.2c0.3,0,0.6-0.1,0.8-0.2c0.2-0.1,0.4-0.3,0.5-0.5c0.1-0.2,0.2-0.5,0.2-0.7
			C124.2,130.5,124.2,130.2,124.2,129.9z"/>
		<path id="XMLID_1081_" class="st0" d="M132.6,128.6c-0.1,0.2-0.2,0.4-0.3,0.6c-0.1,0.2-0.2,0.4-0.3,0.6c-0.2,0.4-0.4,0.9-0.6,1.3
			c-0.2,0.4-0.4,0.9-0.7,1.3h-0.7c0,0-0.1-0.2-0.2-0.3c-0.1-0.2-0.2-0.4-0.3-0.6c-0.1-0.3-0.3-0.5-0.4-0.8c-0.2-0.3-0.3-0.6-0.4-0.8
			c-0.2-0.3-0.3-0.6-0.4-0.8c-0.1-0.2-0.2-0.4-0.2-0.5h0v4.5h-1v-5.4H126v-0.7h2.1l1.5,2.9c0.2,0.3,0.3,0.7,0.5,0.9
			c0.1,0.3,0.2,0.5,0.3,0.6h0c0,0,0-0.1,0.1-0.2c0-0.1,0.1-0.2,0.2-0.4c0.1-0.2,0.2-0.3,0.2-0.5c0.1-0.2,0.2-0.4,0.3-0.6l1.4-2.8
			h1.9v0.7h-0.9v4.7h0.9v0.6c-0.2,0.1-0.3,0.1-0.5,0.2c-0.2,0-0.4,0.1-0.5,0.1c-0.2,0-0.4,0-0.5-0.1c-0.1-0.1-0.2-0.2-0.3-0.3
			c0-0.1-0.1-0.3-0.1-0.4c0-0.2,0-0.3,0-0.5L132.6,128.6L132.6,128.6z"/>
		<path id="XMLID_1079_" class="st0" d="M137.1,127.6v5.4h-1v-5.4h-0.9v-0.8h6.9v0.8h-1v4.6h0.9v0.6c-0.2,0.1-0.3,0.1-0.6,0.2
			c-0.2,0-0.4,0.1-0.5,0.1c-0.3,0-0.5-0.1-0.7-0.2c-0.1-0.1-0.2-0.4-0.2-0.7v-4.6H137.1z"/>
		<path id="XMLID_1077_" class="st0" d="M146.2,133v-0.7h0.8v-4.7h-2v0.5c0,0.7,0,1.3-0.1,1.9c0,0.6-0.1,1.1-0.3,1.5
			c-0.2,0.5-0.4,0.8-0.7,1.1c-0.3,0.3-0.7,0.5-1.2,0.7l-0.3-0.8c0.3-0.2,0.6-0.4,0.8-0.6c0.2-0.2,0.4-0.5,0.5-0.8
			c0.1-0.3,0.2-0.7,0.2-1.2c0-0.5,0-1,0-1.6v-0.7h-1v-0.7h5v5.4h0.8v0.7H146.2z"/>
		<path id="XMLID_412_" class="st0" d="M152.2,126.7c0.4,0,0.7,0.1,1,0.2c0.3,0.1,0.5,0.3,0.7,0.4c0.2,0.2,0.3,0.4,0.4,0.6
			c0.1,0.2,0.2,0.4,0.2,0.7c0,0.2,0.1,0.4,0.1,0.6c0,0.2,0,0.4,0,0.5v0.6h-4.1c0,0.3,0,0.6,0.1,0.8c0.1,0.3,0.1,0.5,0.3,0.7
			c0.1,0.2,0.3,0.3,0.5,0.5c0.2,0.1,0.5,0.2,0.9,0.2c0.4,0,0.7,0,1-0.1c0.3-0.1,0.6-0.2,1-0.3l0.3,0.7c-0.4,0.2-0.7,0.3-1.1,0.4
			c-0.4,0.1-0.8,0.1-1.2,0.1c-0.5,0-1-0.1-1.4-0.3c-0.4-0.2-0.6-0.4-0.8-0.7c-0.2-0.3-0.3-0.6-0.4-1c-0.1-0.4-0.1-0.8-0.1-1.2
			c0-0.3,0-0.6,0.1-1c0.1-0.4,0.2-0.7,0.4-1.1c0.2-0.3,0.5-0.6,0.8-0.9C151.2,126.8,151.7,126.7,152.2,126.7z M152.2,127.5
			c-0.3,0-0.5,0-0.7,0.2c-0.2,0.1-0.4,0.2-0.5,0.4c-0.1,0.2-0.2,0.4-0.3,0.6c-0.1,0.2-0.1,0.5-0.1,0.7h3.1c0-0.3,0-0.5-0.1-0.8
			c0-0.2-0.1-0.4-0.2-0.6c-0.1-0.2-0.3-0.3-0.5-0.4C152.7,127.5,152.5,127.5,152.2,127.5z"/>
		<path id="XMLID_410_" class="st0" d="M155.4,132.2h0.9v-4.7h-1v-0.7h2v5.4h0.8v0.7h-2.7V132.2z M160.5,132.2l0.9,0.1v0.5
			c-0.1,0.1-0.3,0.1-0.5,0.2c-0.2,0-0.3,0-0.5,0c-0.2,0-0.3,0-0.4-0.1c-0.1-0.1-0.2-0.2-0.4-0.3l-2.2-2.9v-0.2l2.1-2.6
			c0.1-0.2,0.2-0.3,0.4-0.3c0.1-0.1,0.3-0.1,0.4-0.1c0.1,0,0.3,0,0.5,0.1c0.2,0,0.3,0.1,0.4,0.2l-0.1,0.6l-0.8,0l-1.8,2.2
			L160.5,132.2z"/>
		<path id="XMLID_1069_" class="st0" d="M164.8,126.7c0.7,0,1.3,0.1,1.8,0.3v1.6h-0.8v-1c-0.1,0-0.3-0.1-0.4-0.1c-0.2,0-0.3,0-0.4,0
			c-0.7,0-1.2,0.2-1.5,0.6c-0.3,0.4-0.5,1-0.5,1.8c0,0.7,0.1,1.3,0.4,1.7c0.3,0.4,0.7,0.6,1.3,0.6c0.3,0,0.6,0,0.9-0.1
			c0.3-0.1,0.6-0.2,0.9-0.3l0.3,0.7c-0.3,0.2-0.6,0.3-1,0.4c-0.4,0.1-0.8,0.1-1.2,0.1c-0.5,0-1-0.1-1.3-0.2
			c-0.3-0.2-0.6-0.4-0.8-0.7c-0.2-0.3-0.4-0.6-0.5-1c-0.1-0.4-0.1-0.8-0.1-1.2c0-0.3,0-0.7,0.1-1.1c0.1-0.4,0.2-0.7,0.4-1.1
			c0.2-0.3,0.5-0.6,0.9-0.8C163.8,126.8,164.2,126.7,164.8,126.7z"/>
	</g>
	<path id="XMLID_1067_" class="st0" d="M110.6,13.9c0-1.6-0.3-3.1-0.9-4.4v0l14.1,4.4l-14.1,4.4C110.3,17,110.6,15.5,110.6,13.9z"/>
	<path id="XMLID_409_" class="st0" d="M106.8,14.9c-0.6,0-1.1-0.5-1.1-1.1c0-0.6,0.5-1.1,1.1-1.1h1.1c-0.4-1-1.4-1.8-2.5-1.8
		c-1.5,0-2.7,1.2-2.7,2.7c0,1.5,1.2,2.7,2.7,2.7c1.1,0,2-0.6,2.4-1.6H106.8z"/>
	<path id="XMLID_1065_" class="st1" d="M109.7,9.4c-3.2-6.8-9.7-6.5-9.7-6.5c-6.6-0.1-10.6,2.2-14-2.1c-1.2,5,0.7,7.5,3.7,8.7
		C89.7,9.4,109.7,9.4,109.7,9.4z"/>
	<path id="XMLID_408_" class="st1" d="M102.9,36.4c0.1,0,0.2,0,0.3,0c-0.2,5.3-3.5,10.1-8.8,11.9c-1,0.3-2,0.5-3,0.6v0l-0.3,0
		c-0.2,0-0.5,0-0.7,0h-1C89.9,42,95.8,36.4,102.9,36.4z"/>
	<path id="XMLID_375_" class="st1" d="M154.6,67.3H6.7l10.8,18.6L6.8,104.7h147.8l10.7-18.6L154.6,67.3z M44.9,89.7
		c-0.4,1-1,1.8-1.7,2.5c-0.7,0.7-1.6,1.3-2.6,1.7c-1,0.4-2.1,0.6-3.2,0.6c-1.1,0-2.3,0-3.4,0c-1.1,0-2.2-0.1-3.3-0.1
		c-0.1,0-0.5,0-1,0c-0.5,0-1.1,0-1.7,0c-0.6,0-1.2,0-1.7,0c-0.5,0-0.9,0-1,0c0-0.3,0-0.6,0-0.9c0-0.3,0-0.6,0.1-0.9
		c0.3-0.1,0.5-0.2,0.8-0.2c0.3-0.1,0.5-0.2,0.8-0.3c0.5-0.2,0.8-0.3,1-0.6c0.2-0.2,0.4-0.7,0.5-1.3L30.1,76c0-0.4,0-0.8,0-1.1
		c-0.1-0.3-0.4-0.5-0.9-0.7l-1.5-0.5l0.4-1.8c1.2,0,2.5,0,3.8,0h8c0.6,0,1.1,0,1.6,0c0.5,0,1,0,1.5,0h0.5c0.2,0,0.3,0,0.5,0
		c0,0,0.1,0.1,0.1,0.1c0,0,0.1,0,0.1,0.1c-0.1,1.1-0.2,2.1-0.3,3.2c-0.1,1.1-0.2,2.1-0.3,3.2L42,78.6l-0.6-2.5
		c-0.1-0.5-0.3-0.8-0.5-1c-0.2-0.2-0.6-0.3-1.2-0.3l-4.7-0.1l-0.7,5.6c0.2,0,0.5,0,0.8-0.1c0.3,0,0.6-0.1,0.9-0.1c0.3,0,0.6,0,1,0
		c0.3,0,0.6,0,0.9,0c2.6,0,4.6,0.6,5.9,1.7c1.3,1.1,1.9,2.6,1.9,4.6C45.5,87.7,45.3,88.8,44.9,89.7z M60.4,94.3
		c-0.8,0.4-1.5,0.6-2.2,0.6c-0.9,0-1.5-0.2-1.9-0.6c-0.4-0.4-0.6-1.2-0.8-2.2c-0.1-1-0.2-2.2-0.3-3.7c-0.1-1.5-0.2-3-0.3-4.5h-0.2
		c-0.9,1.8-1.8,3.6-2.6,5.4c-0.9,1.8-1.7,3.4-2.4,4.8c-0.1,0.2-0.2,0.4-0.3,0.5c-0.1,0.1-0.3,0.1-0.7,0.1c-0.6,0-1,0-1.5,0.1
		c-0.4,0-0.9,0.1-1.2,0.1c0,0-0.1-0.1-0.2-0.2c-0.1-0.1-0.2-0.2-0.3-0.4c1.5-2.4,3-4.9,4.5-7.4c1.5-2.4,3-4.9,4.5-7.4
		c0.1-0.1,0.2-0.3,0.3-0.4c0.1-0.1,0.2-0.2,0.5-0.2c0.5-0.1,0.9-0.2,1.4-0.2c0.5-0.1,0.9-0.1,1.4-0.2c0.3,0.1,0.5,0.2,0.5,0.3
		c0.1,1.1,0.1,2.2,0.2,3.5c0.1,1.2,0.2,2.5,0.3,3.7c0.1,1.1,0.2,2.1,0.3,3.1c0.1,1,0.2,1.9,0.4,2.6c0.4-0.1,0.7-0.2,1-0.3
		c0.3-0.1,0.6-0.3,1-0.5c0.1,0.2,0.3,0.5,0.4,0.7c0.1,0.2,0.3,0.4,0.4,0.7C62,93.2,61.2,93.9,60.4,94.3z M80.2,94.2
		c-0.9,0.4-1.7,0.6-2.5,0.6c-0.9,0-1.5-0.2-1.9-0.5c-0.4-0.3-0.6-0.9-0.6-1.6c0-0.5,0-1,0.1-1.6c0.1-0.6,0.2-1.3,0.3-2h-0.1
		c-0.4,0.6-0.9,1.3-1.5,2c-0.5,0.7-1.1,1.3-1.8,1.8c-0.6,0.6-1.3,1-2,1.4c-0.7,0.4-1.4,0.5-2.1,0.5c-0.9,0-1.5-0.2-2-0.7
		c-0.5-0.5-0.7-1.1-0.7-2c0-0.4,0-1,0.1-1.8c0.1-0.8,0.2-1.7,0.4-2.6c0.2-1,0.4-2,0.6-3.1c0.2-1.1,0.4-2.2,0.6-3.2h0
		c-0.4,0-0.8,0.1-1.2,0.3c-0.4,0.1-0.8,0.3-1.3,0.5l-0.9-1.3c0.8-0.9,1.6-1.5,2.6-2c1-0.5,1.9-0.7,2.7-0.7c0.8,0,1.4,0.2,1.8,0.6
		c0.4,0.4,0.6,1,0.5,1.9c0,0.3-0.1,0.7-0.2,1.2c-0.1,0.5-0.2,1.1-0.3,1.7c-0.1,0.6-0.2,1.3-0.4,1.9c-0.1,0.7-0.2,1.3-0.3,1.9
		c-0.1,0.6-0.2,1.1-0.2,1.6c-0.1,0.5-0.1,0.8-0.1,1.1c0,0.3,0.1,0.6,0.2,0.8c0.1,0.2,0.4,0.3,0.7,0.3c0.3,0,0.8-0.2,1.2-0.6
		c0.5-0.4,0.9-0.8,1.3-1.4c0.4-0.5,0.8-1.1,1.2-1.6c0.4-0.5,0.6-1,0.8-1.3c0.2-0.3,0.3-0.6,0.5-0.9c0.2-0.3,0.3-0.6,0.4-0.9
		c0.1-0.2,0.1-0.4,0.2-0.8c0.1-0.4,0.2-0.9,0.3-1.3c0.1-0.5,0.2-1,0.2-1.5c0.1-0.5,0.1-0.9,0.2-1.3c0.1-0.2,0.1-0.4,0.2-0.5
		c0.1-0.1,0.3-0.2,0.6-0.2c0.6-0.1,1.1-0.2,1.7-0.3c0.5-0.1,1-0.2,1.4-0.3c0.1,0,0.2,0.1,0.3,0.1c0.1,0.1,0.2,0.1,0.2,0.3
		c-0.2,1.2-0.4,2.3-0.6,3.2c-0.2,1-0.3,1.9-0.5,2.9c-0.1,1-0.3,2-0.5,3.1c-0.2,1.1-0.4,2.3-0.6,3.8c0.3,0,0.7-0.1,1.1-0.2
		c0.4-0.1,0.8-0.3,1.3-0.5l0.9,1.3C82,93.1,81.1,93.8,80.2,94.2z M97.4,87c0.5,0.7,0.8,1.3,0.8,2c0,0.9-0.3,1.7-0.9,2.4
		c-0.6,0.7-1.3,1.3-2.2,1.9c-0.9,0.5-1.9,0.9-3.1,1.2c-1.2,0.3-2.3,0.4-3.4,0.4c-1,0-1.8-0.1-2.4-0.3c-0.6-0.2-1.1-0.4-1.5-0.6
		c-0.4-0.2-0.6-0.5-0.8-0.8c-0.2-0.3-0.2-0.6-0.2-0.8c0-0.2,0.1-0.5,0.2-0.7c0.1-0.3,0.3-0.5,0.6-0.7c0.3-0.2,0.6-0.4,1.1-0.6
		c0.4-0.2,1-0.3,1.7-0.3c0.1,1,0.4,1.6,0.9,2c0.5,0.4,1.1,0.6,1.7,0.6c0.6,0,1.2-0.1,1.7-0.3c0.5-0.2,0.9-0.4,1.2-0.8
		c0.3-0.3,0.6-0.7,0.7-1.1c0.2-0.4,0.2-0.8,0.2-1.3c0-0.6-0.3-1.1-0.9-1.5c-0.6-0.4-1.5-0.6-2.8-0.6h-1.5l-0.3-1.7l0.3-0.4
		c1.1,0,2-0.1,2.7-0.3c0.7-0.2,1.3-0.4,1.7-0.6c0.4-0.2,0.7-0.5,0.9-0.8c0.2-0.3,0.3-0.6,0.3-0.8c0-0.4-0.2-0.8-0.5-1.1
		c-0.3-0.3-0.9-0.4-1.6-0.4c-0.7,0-1.5,0.1-2.3,0.3c-0.9,0.2-1.8,0.5-2.8,1l-1-1.7c0.7-0.5,1.4-0.8,2-1.1c0.7-0.3,1.3-0.5,2-0.7
		c0.6-0.2,1.2-0.3,1.8-0.4c0.6-0.1,1.1-0.1,1.5-0.1c1,0,1.9,0.1,2.5,0.3c0.7,0.2,1.2,0.5,1.7,0.8c0.4,0.3,0.7,0.7,0.9,1.1
		c0.2,0.4,0.3,0.8,0.3,1.3c0,0.8-0.3,1.5-1,2.3c-0.7,0.7-1.6,1.3-2.7,1.6C96.1,85.8,96.9,86.3,97.4,87z M116.7,98.5
		c-2.5-1.1-4.5-4.2-6-7c-0.1-0.3-0.3-0.5-0.4-0.8c-1.1-2.3-1.8-4.2-1.8-4.2c-0.4,0.4-0.7,0.8-0.9,1.2c-0.2,0.4-0.4,0.8-0.5,1.4
		l-0.7,4.5c0,0.2-0.1,0.3-0.2,0.5c-0.1,0.1-0.3,0.2-0.6,0.3c-0.5,0.1-1,0.2-1.6,0.3c-0.6,0.1-1.1,0.2-1.4,0.3
		c-0.1,0-0.2-0.1-0.3-0.1c-0.1-0.1-0.2-0.1-0.2-0.3c0.5-2.9,0.9-5.4,1.3-7.7c0.3-2.2,0.6-4,0.8-5.4c-0.4,0-0.7,0.1-1,0.2
		c-0.3,0.1-0.7,0.3-1.2,0.4l-0.9-1.3c0.8-0.9,1.7-1.5,2.6-1.9c0.9-0.4,1.8-0.6,2.5-0.6c0.7,0,1.3,0.2,1.7,0.5
		c0.4,0.3,0.6,0.9,0.6,1.6c0,0.2,0,0.5,0,0.8c0,0.3-0.1,0.7-0.1,1.1c-0.1,0.4-0.1,0.8-0.2,1.2c-0.1,0.4-0.2,0.8-0.2,1.2l0.1,0
		c0.5-0.8,1.2-1.6,1.8-2.4c0.7-0.8,1.3-1.4,2-2c0.7-0.6,1.4-1,2.1-1.4c0.7-0.3,1.4-0.5,2.1-0.5c0.8,0,1.4,0.2,1.9,0.5
		c0.5,0.4,0.7,0.8,0.7,1.4c0,0.1,0,0.3-0.1,0.5c-0.1,0.2-0.1,0.4-0.3,0.7c-0.1,0.2-0.3,0.5-0.6,0.7c-0.2,0.2-0.6,0.4-1,0.6
		c-0.3-0.6-0.6-1-1.1-1.2c-0.4-0.2-0.8-0.3-1.2-0.3c-0.5,0-1,0.2-1.5,0.6c-0.5,0.4-1,0.8-1.6,1.4c0.3,1,0.7,1.9,1.1,2.9
		c0,0.1,0.1,0.1,0.1,0.3c2.7,6.4,6,12.4,13.1,11.6C122.8,100,119.3,99.6,116.7,98.5z M133.7,88.6c-0.4,1.3-1.1,2.4-1.9,3.3
		c-0.8,0.9-1.8,1.6-3,2.2c-1.2,0.5-2.6,0.8-4.1,0.8c-2,0-3.5-0.6-4.5-1.7c-1-1.1-1.5-2.6-1.5-4.6c0-1.6,0.3-3,0.8-4.2
		c0.5-1.3,1.2-2.3,2.1-3.2c0.9-0.9,1.9-1.6,3-2.1c1.2-0.5,2.4-0.7,3.6-0.7c1,0,1.9,0.2,2.6,0.5c0.8,0.3,1.4,0.7,1.9,1.3
		c0.5,0.5,0.9,1.2,1.2,1.9c0.3,0.8,0.4,1.6,0.4,2.5C134.4,86,134.2,87.4,133.7,88.6z M148.8,84.2c-0.4,0.6-1.1,1.2-1.8,1.7
		c-0.8,0.5-1.7,0.9-2.7,1.3c-1,0.4-2.1,0.7-3.3,1.1c0,0.2,0,0.3,0,0.5v0.5c0,0.4,0,0.8,0.1,1.1c0.1,0.3,0.2,0.7,0.3,0.9
		c0.1,0.3,0.3,0.5,0.5,0.6c0.2,0.2,0.5,0.2,0.8,0.2c0.8,0,1.6-0.2,2.4-0.6c0.8-0.4,1.7-1,2.6-1.8l1.2,1.2c-0.3,0.4-0.7,0.9-1.3,1.3
		c-0.5,0.5-1.1,0.9-1.7,1.3c-0.6,0.4-1.3,0.7-2.1,1c-0.8,0.3-1.5,0.4-2.4,0.4c-1.6,0-2.8-0.5-3.7-1.4c-0.8-0.9-1.3-2.3-1.3-4.2
		c0-1,0.1-2,0.4-3.2c0.3-1.1,0.7-2.1,1.1-3.1c0.3-0.5,0.7-1.1,1.3-1.6c0.6-0.6,1.2-1.1,1.9-1.5c0.7-0.5,1.5-0.8,2.3-1.2
		c0.8-0.3,1.5-0.5,2.3-0.5c1.2,0,2.1,0.4,2.8,1.1c0.7,0.7,1,1.7,1.1,2.8C149.4,82.9,149.2,83.6,148.8,84.2z M144.4,80.8
		c-0.7,0-1.4,0.5-2,1.4c-0.6,1-1.1,2.3-1.3,4l0,0.1c0.5-0.1,1.1-0.3,1.6-0.5c0.6-0.2,1.1-0.5,1.5-0.8c0.4-0.3,0.8-0.7,1.1-1.1
		c0.3-0.4,0.4-0.8,0.4-1.3c0-0.6-0.2-1-0.5-1.4C145,81,144.7,80.8,144.4,80.8z M36.2,83.1c-0.8,0-1.6,0.1-2.4,0.2
		c-0.2,1.1-0.3,2.2-0.4,3.3c-0.1,1.1-0.3,2.2-0.4,3.3c0,0.1,0,0.1,0,0.2c0,0.1,0,0.1,0,0.1c0,0.6,0.2,1,0.7,1.2
		c0.5,0.2,1.1,0.3,1.9,0.3c0.9,0,1.6-0.1,2.3-0.4c0.7-0.3,1.2-0.6,1.6-1.1c0.4-0.4,0.8-1,1-1.6c0.2-0.6,0.3-1.2,0.3-1.9
		c0-1.1-0.4-2-1.1-2.7C38.9,83.4,37.8,83.1,36.2,83.1z M127.5,80.6c-0.7,0-1.2,0.2-1.8,0.6c-0.5,0.4-1,1-1.3,1.7
		c-0.4,0.7-0.6,1.5-0.8,2.5c-0.2,0.9-0.3,1.9-0.3,3c0,1.3,0.2,2.3,0.5,3.1c0.4,0.8,1,1.2,1.9,1.2c0.7,0,1.2-0.2,1.8-0.6
		c0.5-0.4,1-1,1.3-1.7c0.3-0.7,0.6-1.6,0.8-2.5c0.2-1,0.3-2,0.3-3.1c0-1.3-0.2-2.3-0.7-3C128.8,80.9,128.2,80.6,127.5,80.6z"/>
</g>
</svg>
