<?xml version="1.0" encoding="utf-8"?>
<!-- Generator: Adobe Illustrator 19.0.0, SVG Export Plug-In . SVG Version: 6.00 Build 0)  -->
<svg version="1.1" id="Layer_1" xmlns="http://www.w3.org/2000/svg" xmlns:xlink="http://www.w3.org/1999/xlink" x="0px" y="0px"
	 viewBox="0 0 99.4 99.5" style="enable-background:new 0 0 99.4 99.5;" xml:space="preserve">
<style type="text/css">
	.st0{fill:#42403F;}
	.st1{fill:#C53924;}
	.st2{fill:#FFFFFF;}
</style>
<g id="XMLID_334_">
	<path id="XMLID_276_" class="st0" d="M20.6,22.8v32c0,4.3,1.1,8.5,3.2,12.1c3.9,6.7,11.6,15.8,26,21.4c14.3-5.6,22-14.7,26-21.4
		c2.1-3.6,3.2-7.7,3.2-12.1v-32c-6.6-1.3-17.9-4.3-29.1-10.5C38.5,18.6,27.1,21.5,20.6,22.8z"/>
	<path id="XMLID_263_" class="st1" d="M87.1,14.3c-0.2,0-19.5-1.9-36.5-12.7c-0.5-0.3-1.2-0.3-1.7,0C31.8,12.4,12.5,14.3,12.3,14.3
		c-0.8,0.1-1.5,0.8-1.5,1.6v38.9c0,6,1.6,11.9,4.5,17c5.1,8.6,15,20.2,33.8,26.6c0.2,0.1,0.3,0.1,0.5,0.1c0.2,0,0.4,0,0.5-0.1
		C69,92.1,79,80.4,84.1,71.8c3-5.1,4.5-10.9,4.5-17V15.9C88.6,15.1,87.9,14.4,87.1,14.3z M82.1,54.8c0,4.9-1.3,9.6-3.6,13.7
		c-4.3,7.2-12.6,17.1-28.2,23c-0.2,0.1-0.4,0.1-0.6,0.1s-0.4,0-0.6-0.1c-15.6-5.9-23.9-15.8-28.2-23c-2.4-4.1-3.6-8.8-3.6-13.7V21.5
		c0-0.8,0.6-1.4,1.3-1.6c6.2-1.2,18.4-4.1,30.3-10.8c0.5-0.3,1.1-0.3,1.6,0c11.9,6.7,24.1,9.6,30.3,10.8c0.8,0.1,1.3,0.8,1.3,1.6
		V54.8z"/>
	<g id="XMLID_230_">
		<path id="XMLID_261_" class="st2" d="M65.1,37.1c0-1-0.2-2-0.6-2.9v0l9.1,2.9L64.5,40C64.9,39.1,65.1,38.1,65.1,37.1z"/>
		<path id="XMLID_257_" class="st2" d="M62.6,37.8c-0.4,0-0.7-0.3-0.7-0.7c0-0.4,0.3-0.7,0.7-0.7h0.7c-0.3-0.7-0.9-1.1-1.6-1.1
			c-1,0-1.8,0.8-1.8,1.8c0,1,0.8,1.8,1.8,1.8c0.7,0,1.3-0.4,1.6-1H62.6z"/>
		<path id="XMLID_251_" class="st2" d="M64.5,34.2c-2.1-4.4-6.3-4.2-6.3-4.2c-4.3,0-6.9,1.4-9.1-1.4c-0.8,3.3,0.5,4.9,2.4,5.6
			C51.5,34.2,64.5,34.2,64.5,34.2z"/>
		<path id="XMLID_248_" class="st2" d="M60.1,51.8c0.1,0,0.1,0,0.2,0c-0.1,3.4-2.3,6.6-5.7,7.7c-0.6,0.2-1.3,0.3-1.9,0.4v0l-0.2,0
			c-0.2,0-0.3,0-0.5,0h-0.6C51.6,55.4,55.4,51.8,60.1,51.8z"/>
		<g id="XMLID_233_">
			<path id="XMLID_242_" class="st2" d="M57.9,44.3c2.9,0,5.4-1.8,6.6-4.3h-5.1c-1.6,0-2.9-1.3-2.9-2.9c0-1.6,1.3-2.9,2.9-2.9h5.1
				c-1.1-2.5-3.6-4.3-6.5-4.3c-4,0-7.2,3.2-7.2,7.2C50.8,41.1,54,44.3,57.9,44.3z"/>
			<path id="XMLID_239_" class="st2" d="M38.2,51.3l-11.1,8.6l20.2,0v4.8h1.5v0c0.4-3.6,2.4-4.7,2.6-4.8l0.7,0c0.2,0,0.3,0,0.5,0
				l0.2,0v0c0.6-0.1,1.3-0.2,1.9-0.4c4.4-1.5,6.8-6.3,5.3-10.8c-0.8-2.3-2.5-4.1-4.6-5c0,0,0,0,0,0l-15.4-7.3
				c-0.1,0.6-0.1,1.2-0.1,1.7c0,3.4,1.3,5.7,3.4,7.3c1.8,1.3,4.3,2,7,2.2V49c-3-0.2-5.7-0.9-7.8-2.5c-2.4-1.8-4-4.6-3.9-8.4
				c0-0.7,0.1-1.5,0.2-2.3l-2.3-1.1c0,0-2,8.2,3.8,13.9c4.1,3.3,9.7,2.7,9.7,2.7S45,54.3,38.2,51.3z"/>
		</g>
	</g>
	<circle id="XMLID_218_" class="st2" cx="48.1" cy="68.1" r="3.3"/>
</g>
<path id="XMLID_630_" class="st1" d="M64.5,34.2c-2.1-4.4-6.3-4.2-6.3-4.2c-4.3,0-6.9,1.4-9.1-1.4c-0.8,3.3,0.5,4.9,2.4,5.6
	C51.5,34.2,64.5,34.2,64.5,34.2z"/>
<path id="XMLID_627_" class="st1" d="M60.1,51.8c0.1,0,0.1,0,0.2,0c-0.1,3.4-2.3,6.6-5.7,7.7c-0.6,0.2-1.3,0.3-1.9,0.4v0l-0.2,0
	c-0.2,0-0.3,0-0.5,0h-0.6C51.6,55.4,55.4,51.8,60.1,51.8z"/>
</svg>
