<?xml version="1.0" encoding="utf-8"?>
<!-- Generator: Adobe Illustrator 19.0.0, SVG Export Plug-In . SVG Version: 6.00 Build 0)  -->
<svg version="1.1" id="Layer_1" xmlns="http://www.w3.org/2000/svg" xmlns:xlink="http://www.w3.org/1999/xlink" x="0px" y="0px"
	 viewBox="0 0 99.4 99.5" style="enable-background:new 0 0 99.4 99.5;" xml:space="preserve">
<style type="text/css">
	.st0{fill:#42403F;}
	.st1{fill:#C53924;}
</style>
<g id="XMLID_335_">
	<g id="XMLID_295_">
		<path id="XMLID_298_" class="st0" d="M46.7,30.8l0.5-0.6c0.8-1,1.9-1.6,3.1-1.7L65,22.2c2.2-0.9,4.7,0.1,5.6,2.3l0.4,1
			c0.9,2.2-0.1,4.7-2.3,5.6l-8.2,3.4l7.5,5.6c1.9,1.5,2.4,4.2,0.9,6.2l-0.5,0.6c-1.5,1.9-4.2,2.4-6.2,0.9L47.6,37
			C45.7,35.5,45.3,32.7,46.7,30.8z"/>
		<path id="XMLID_297_" class="st0" d="M38.4,43l0.1-0.1c0.3-0.4,0.7-0.8,1.1-1.1l0,0l5.1-4.1c2.2,3.1,4.5,3.4,7.5,5.8l-2,2
			c5.4,3.8,13.3,9.4,13.8,9.9v0c1.8,1.9,1.7,5-0.2,6.8L52.1,73.3l4.6,2.2c2,0.9,2.8,3.3,1.8,5.2l-0.3,0.6c-1,1.9-3.4,2.7-5.3,1.8
			l-10.7-4.3c0,0,0,0,0,0c-0.6-0.2-1.2-0.6-1.7-1.1c-1.8-1.9-1.7-5,0.2-6.8l12-11.3l-13.3-9.9C37.3,48.1,36.9,45.1,38.4,43z"/>
		<path id="XMLID_296_" class="st0" d="M66.3,35.3c2.4,1.1,5.7,4.8,5.9,6.7c4.2-0.8,6.5-6.3,0.1-9.7C71.3,33.5,67.6,35,66.3,35.3z"
			/>
	</g>
	<path id="XMLID_294_" class="st1" d="M51.4,24.8L15.8,0.3c-0.7-0.5-1.6-0.3-2,0.4v0c-0.5,0.7-0.3,1.6,0.4,2l34.3,23.5L51.4,24.8z"
		/>
	<path id="XMLID_293_" class="st1" d="M43.1,28.9L11.4,7.2c-0.7-0.5-1.6-0.3-2,0.4l0,0c-0.5,0.7-0.3,1.6,0.4,2l33.6,23L43.1,28.9z"
		/>
	<path id="XMLID_292_" class="st1" d="M9.9,68c0.3-0.8,1.1-1.1,1.9-0.8L79,92.5l2.6-2.1c0.7-0.4,1.6-0.2,2,0.5
		c0,2.7-2.7,5.5-5.9,4.3L10.8,69.9C10,69.6,9.6,68.8,9.9,68z"/>
	
		<ellipse id="XMLID_285_" transform="matrix(-0.9723 0.2337 -0.2337 -0.9723 163.4359 12.8966)" class="st0" cx="81" cy="16.1" rx="10.7" ry="9.2"/>
	<path id="XMLID_283_" class="st1" d="M9.9,68c0,0-3.1,5-0.1,6.5s65.7,25,65.7,25s3.4,1.3,7.4-6.3l-3.3,0.7L9.9,68z"/>
</g>
</svg>
