<?xml version="1.0" encoding="utf-8"?>
<!-- Generator: Adobe Illustrator 19.0.0, SVG Export Plug-In . SVG Version: 6.00 Build 0)  -->
<svg version="1.1" id="Layer_1" xmlns="http://www.w3.org/2000/svg" xmlns:xlink="http://www.w3.org/1999/xlink" x="0px" y="0px"
	 viewBox="0 0 99.4 99.5" style="enable-background:new 0 0 99.4 99.5;" xml:space="preserve">
<style type="text/css">
	.st0{fill:#C53924;}
	.st1{fill:#42403F;}
</style>
<g id="XMLID_446_">
	<polygon id="XMLID_448_" class="st0" points="35.6,97.7 38.7,12.7 39.4,12.7 42.6,97.7 	"/>
	<path id="XMLID_447_" class="st0" d="M53,61c0,0,8.1,2.1,13.7,2.8C63,59.9,53,43.8,53,43.8L47.7,40l7.2-0.4L46,25.8l4.2,0.8l-6.5-8
		l2.3-1.6L39.2,1.9l-7.8,16.8h3.3l-6.5,8l5.5,0.2l-5.4,3.7L20,42.7L30.7,40l-7.5,5.3c0,0-7.9,14.6-11.6,18.6
		c9.3-0.3,12.8-1.9,12.8-1.9S6.5,79.4,5.8,79.6c-0.7,0.2,14.4,0.8,14.4,0.8l18.9-2.2L51,80.8c0,0,22.3-0.9,21.6-1.2
		C71.8,79.4,53,61,53,61z"/>
</g>
<path id="XMLID_93_" class="st1" d="M92.9,33.5c0-15.1-5.5-27.3-12.2-27.3c-6.8,0-12.2,12.2-12.2,27.3c0,13.5,4.4,24.6,10.1,26.9
	l-0.4,9.5h4.7l-0.4-9.4C88.3,58.7,92.9,47.3,92.9,33.5z"/>
</svg>
