<?xml version="1.0" encoding="utf-8"?>
<!-- Generator: Adobe Illustrator 19.0.0, SVG Export Plug-In . SVG Version: 6.00 Build 0)  -->
<svg version="1.1" id="Layer_1" xmlns="http://www.w3.org/2000/svg" xmlns:xlink="http://www.w3.org/1999/xlink" x="0px" y="0px"
	 viewBox="0 0 99.4 99.5" style="enable-background:new 0 0 99.4 99.5;" xml:space="preserve">
<style type="text/css">
	.st0{fill:#42403F;}
	.st1{fill:#FFFFFF;}
	.st2{fill:#C53924;}
</style>
<g id="XMLID_302_">
	<path id="XMLID_103_" class="st0" d="M89.6,28.1c-0.1-0.2-0.2-0.3-0.3-0.5L71.5,9.9c-0.1-0.1-0.3-0.2-0.5-0.3
		c-0.2-0.1-0.4-0.1-0.6-0.1H11.2c-0.8,0-1.5,0.7-1.5,1.5v77c0,0.8,0.7,1.5,1.5,1.5h77c0.8,0,1.5-0.7,1.5-1.5V28.7
		C89.7,28.5,89.6,28.3,89.6,28.1"/>
</g>
<g id="XMLID_319_">
	<rect id="XMLID_102_" x="21.5" y="39" class="st1" width="3" height="20.7"/>
</g>
<g id="XMLID_307_">
	<path id="XMLID_101_" class="st1" d="M79.3,39H57.1V22.8c0-0.8-0.7-1.5-1.5-1.5H23c-0.8,0-1.5,0.7-1.5,1.5v13.3h-1.5
		c-0.8,0-1.5,0.7-1.5,1.5v23.7c0,0.8,0.7,1.5,1.5,1.5h1.5V79c0,0.8,0.7,1.5,1.5,1.5h56.3c0.8,0,1.5-0.7,1.5-1.5v-8.9
		c0-0.8-0.7-1.5-1.5-1.5c-0.8,0-1.5,0.7-1.5,1.5v7.4H51.2V67.2c0-0.8-0.7-1.5-1.5-1.5c-0.8,0-1.5,0.7-1.5,1.5v10.4H24.5V62.7H26
		c0.8,0,1.5-0.7,1.5-1.5V37.6c0-0.8-0.7-1.5-1.5-1.5h-1.5V24.2h29.6v16.3c0,0.8,0.7,1.5,1.5,1.5h22.2v8.9H64.5
		c-0.8,0-1.5,0.7-1.5,1.5c0,0.5,0,1.1,0.1,1.6c0.1,0.8,0.7,1.4,1.5,1.4c0,0,0.1,0,0.1,0c0.8-0.1,1.4-0.7,1.4-1.5h13.3
		c0.8,0,1.5-0.7,1.5-1.5V40.5C80.8,39.7,80.1,39,79.3,39"/>
	<path id="XMLID_301_" class="st0" d="M79.3,81H23c-1.1,0-2-0.9-2-2V63.2h-1c-1.1,0-2-0.9-2-2V37.6c0-1.1,0.9-2,2-2h1V22.8
		c0-1.1,0.9-2,2-2h32.6c1.1,0,2,0.9,2,2v15.8h21.7c1.1,0,2,0.9,2,2v11.8c0,1.1-0.9,2-2,2H66.4c-0.2,0.8-0.9,1.4-1.8,1.5l-0.1,0
		c-1,0-1.9-0.8-2-1.8c0-0.5-0.1-1.1-0.1-1.6c0-1.1,0.9-2,2-2h12.8v-7.9H55.6c-1.1,0-2-0.9-2-2V24.7H25v10.8h1c1.1,0,2,0.9,2,2v23.7
		c0,1.1-0.9,2-2,2h-1V77h22.7v-9.9c0-1.1,0.9-2,2-2c1.1,0,2,0.9,2,2V77h25.7v-6.9c0-1.1,0.9-2,2-2c1.1,0,2,0.9,2,2V79
		C81.3,80.1,80.4,81,79.3,81z M20.1,36.6c-0.5,0-1,0.4-1,1v23.7c0,0.5,0.4,1,1,1h2V79c0,0.5,0.4,1,1,1h56.3c0.5,0,1-0.4,1-1v-8.9
		c0-0.5-0.4-1-1-1c-0.5,0-1,0.4-1,1V78H50.7V67.2c0-0.5-0.4-1-1-1c-0.5,0-1,0.4-1,1V78H24V62.2h2c0.5,0,1-0.4,1-1V37.6
		c0-0.5-0.4-1-1-1h-2V23.7h30.6v16.8c0,0.5,0.4,1,1,1h22.7v9.9H64.5c-0.5,0-1,0.4-1,1c0,0.5,0,1,0.1,1.5c0,0.5,0.5,0.9,1,0.9
		c0.6,0,1-0.5,1-1l0-0.5h13.8c0.5,0,1-0.4,1-1V40.5c0-0.5-0.4-1-1-1H56.6V22.8c0-0.5-0.4-1-1-1H23c-0.5,0-1,0.4-1,1v13.8H20.1z"/>
</g>
<g id="XMLID_304_">
	<path id="XMLID_100_" class="st1" d="M72.8,66.6c-0.7-0.5-1.6-0.3-2.1,0.4c-0.5,0.7-0.3,1.6,0.4,2.1c0.4,0.3,0.9,0.6,1.4,0.9
		c0.2,0.1,0.5,0.2,0.7,0.2c0.5,0,1-0.3,1.3-0.8c0.4-0.7,0.1-1.6-0.6-2C73.5,67,73.1,66.8,72.8,66.6"/>
	<path id="XMLID_97_" class="st0" d="M73.2,70.5c-0.3,0-0.7-0.1-0.9-0.2c-0.5-0.3-1-0.6-1.4-0.9c-0.4-0.3-0.7-0.8-0.8-1.3
		c-0.1-0.5,0-1,0.3-1.5s0.8-0.7,1.3-0.8c0.5-0.1,1,0,1.5,0.3c0.3,0.2,0.7,0.5,1.1,0.7c0.5,0.3,0.8,0.7,0.9,1.2
		c0.1,0.5,0.1,1-0.2,1.5C74.6,70.1,73.9,70.5,73.2,70.5z M71.9,66.8c-0.1,0-0.1,0-0.2,0c-0.3,0-0.5,0.2-0.6,0.4
		c-0.1,0.2-0.2,0.5-0.2,0.7c0,0.3,0.2,0.5,0.4,0.6c0.4,0.3,0.9,0.6,1.3,0.8c0.5,0.3,1.1,0.1,1.3-0.4c0.1-0.2,0.2-0.5,0.1-0.7
		c-0.1-0.3-0.2-0.5-0.5-0.6c-0.4-0.2-0.8-0.5-1.2-0.7l0,0C72.3,66.9,72.1,66.8,71.9,66.8z"/>
</g>
<g id="XMLID_303_">
	<path id="XMLID_96_" class="st1" d="M65.7,59.6c-0.7,0.3-1.1,1.2-0.7,2c0.2,0.5,0.5,1,0.7,1.4c0.3,0.5,0.8,0.8,1.3,0.8
		c0.2,0,0.5-0.1,0.7-0.2c0.7-0.4,1-1.3,0.6-2c-0.2-0.4-0.4-0.8-0.6-1.2C67.3,59.6,66.5,59.3,65.7,59.6"/>
	<path id="XMLID_93_" class="st0" d="M67,64.3c-0.7,0-1.4-0.4-1.7-1c-0.3-0.5-0.5-1-0.7-1.5c-0.5-1,0-2.2,1-2.6l0,0
		c0.5-0.2,1-0.2,1.5-0.1c0.5,0.2,0.9,0.5,1.1,1c0.2,0.4,0.4,0.8,0.6,1.2c0.5,1,0.2,2.2-0.8,2.7C67.7,64.2,67.4,64.3,67,64.3z
		 M65.9,60.1c-0.5,0.2-0.7,0.8-0.5,1.3c0.2,0.5,0.5,0.9,0.7,1.4c0.3,0.5,0.9,0.6,1.3,0.4c0.5-0.3,0.6-0.9,0.4-1.3
		c-0.2-0.4-0.4-0.8-0.6-1.3c-0.1-0.2-0.3-0.4-0.6-0.5C66.4,60,66.2,60,65.9,60.1L65.9,60.1z"/>
</g>
<g id="XMLID_331_">
	<polygon id="XMLID_92_" class="st2" points="71,9.5 89.6,28.1 71,28.1 	"/>
</g>
</svg>
