<?xml version="1.0" encoding="utf-8"?>
<!-- Generator: Adobe Illustrator 19.0.0, SVG Export Plug-In . SVG Version: 6.00 Build 0)  -->
<svg version="1.1" id="Layer_1" xmlns="http://www.w3.org/2000/svg" xmlns:xlink="http://www.w3.org/1999/xlink" x="0px" y="0px"
	 viewBox="0 0 32.9 32.9" style="enable-background:new 0 0 32.9 32.9;" xml:space="preserve">
<style type="text/css">
	.st0{fill:#C53924;}
</style>
<g id="XMLID_35_">
	<circle id="XMLID_37_" class="st0" cx="16.4" cy="16.4" r="2.8"/>
	<path id="XMLID_67_" class="st0" d="M23,11.5c-0.2-0.4-0.3-0.7-0.6-1s-0.6-0.5-1-0.6c-0.3-0.1-0.7-0.3-1.6-0.3c-0.9,0-1.2,0-3.4,0
		s-2.5,0-3.4,0c-0.8,0-1.3,0.2-1.6,0.3c-0.4,0.2-0.7,0.3-1,0.6s-0.5,0.6-0.6,1c-0.1,0.3-0.3,0.7-0.3,1.6c0,0.9,0,1.2,0,3.4
		c0,2.2,0,2.5,0,3.4c0,0.8,0.2,1.3,0.3,1.6c0.2,0.4,0.3,0.7,0.6,1s0.6,0.5,1,0.6c0.3,0.1,0.7,0.3,1.6,0.3c0.9,0,1.2,0,3.4,0
		s2.5,0,3.4,0c0.8,0,1.3-0.2,1.6-0.3c0.4-0.2,0.7-0.3,1-0.6s0.5-0.6,0.6-1c0.1-0.3,0.3-0.7,0.3-1.6c0-0.9,0-1.2,0-3.4
		c0-2.2,0-2.5,0-3.4C23.2,12.2,23.1,11.8,23,11.5z M16.4,20.8c-2.4,0-4.3-1.9-4.3-4.3s1.9-4.3,4.3-4.3s4.3,1.9,4.3,4.3
		S18.8,20.8,16.4,20.8z M20.9,12.9c-0.6,0-1-0.5-1-1s0.5-1,1-1s1,0.5,1,1S21.5,12.9,20.9,12.9z"/>
	<path id="XMLID_71_" class="st0" d="M16.4,0L16.4,0C7.4,0,0,7.4,0,16.4v0c0,9.1,7.4,16.4,16.4,16.4h0c9.1,0,16.4-7.4,16.4-16.4v0
		C32.9,7.4,25.5,0,16.4,0z M24.8,19.9c0,0.9-0.2,1.5-0.4,2c-0.2,0.6-0.5,1-1,1.5c-0.5,0.5-0.9,0.8-1.5,1c-0.5,0.2-1.1,0.4-2,0.4
		c-0.9,0-1.2,0.1-3.5,0.1s-2.6,0-3.5-0.1c-0.9,0-1.5-0.2-2-0.4c-0.6-0.2-1-0.5-1.5-1c-0.5-0.5-0.8-0.9-1-1.5c-0.2-0.5-0.4-1.1-0.4-2
		C8,19,8,18.7,8,16.4c0-2.3,0-2.6,0.1-3.5c0-0.9,0.2-1.5,0.4-2c0.2-0.6,0.5-1,1-1.5c0.5-0.5,0.9-0.8,1.5-1c0.5-0.2,1.1-0.4,2-0.4
		C13.9,8,14.1,8,16.4,8s2.6,0,3.5,0.1c0.9,0,1.5,0.2,2,0.4c0.6,0.2,1,0.5,1.5,1c0.5,0.5,0.8,0.9,1,1.5c0.2,0.5,0.4,1.1,0.4,2
		c0,0.9,0.1,1.2,0.1,3.5C24.9,18.7,24.8,19,24.8,19.9z"/>
</g>
</svg>
