<?xml version="1.0" encoding="utf-8"?>
<!-- Generator: Adobe Illustrator 19.0.0, SVG Export Plug-In . SVG Version: 6.00 Build 0)  -->
<svg version="1.1" id="Layer_1" xmlns="http://www.w3.org/2000/svg" xmlns:xlink="http://www.w3.org/1999/xlink" x="0px" y="0px"
	 viewBox="0 0 99.4 99.5" style="enable-background:new 0 0 99.4 99.5;" xml:space="preserve">
<style type="text/css">
	.st0{fill:#42403F;}
	.st1{fill:#C53924;}
</style>
<g id="XMLID_93_">
	<polygon id="XMLID_98_" class="st0" points="85,64.4 85,61.7 79.2,61.7 79.2,64.4 79.2,83.4 79.2,86.1 85,86.1 85,83.4 93,83.4 
		93,64.4 	"/>
	<polygon id="XMLID_97_" class="st0" points="14.3,64.4 6.4,64.4 6.4,83.4 14.3,83.4 14.3,86.1 20.2,86.1 20.2,83.4 20.2,64.4 
		20.2,61.7 14.3,61.7 	"/>
	<rect id="XMLID_96_" x="37.1" y="35.3" class="st0" width="25.2" height="12"/>
	<path id="XMLID_94_" class="st0" d="M70.7,64.4h-8.4V52.1h3.6v-5.8H33.5v5.8h3.6v12.2h-8.4v-2.7h-5.8v24.5h5.8v-2.7h42v2.7h5.8
		V61.7h-5.8V64.4z"/>
</g>
<path id="XMLID_92_" class="st1" d="M43.3,22.9h3.8v3.6h-6.6v6.1h18.4v-6.1h-6.7v-3.6H56v-2.3h13.5v-4.9H52.2v-1.7
	c0-1.4-1.1-2.5-2.5-2.5h-0.1c-1.4,0-2.5,1.1-2.5,2.5v1.7H29.8v4.9h13.5V22.9z"/>
</svg>
