<?xml version="1.0" encoding="utf-8"?>
<!-- Generator: Adobe Illustrator 19.0.0, SVG Export Plug-In . SVG Version: 6.00 Build 0)  -->
<svg version="1.1" id="Layer_1" xmlns="http://www.w3.org/2000/svg" xmlns:xlink="http://www.w3.org/1999/xlink" x="0px" y="0px"
	 viewBox="0 0 32.9 32.9" style="enable-background:new 0 0 32.9 32.9;" xml:space="preserve">
<style type="text/css">
	.st0{fill:#C53924;}
</style>
<path id="XMLID_56_" class="st0" d="M16.4,0L16.4,0C7.4,0,0,7.4,0,16.4v0c0,9.1,7.4,16.4,16.4,16.4h0c9.1,0,16.4-7.4,16.4-16.4v0
	C32.9,7.4,25.5,0,16.4,0z M21.6,10.2l-1.9,0c-1.5,0-1.8,0.7-1.8,1.7v2.3h3.5L21,17.7H18v9.1h-3.7v-9.1h-3.1v-3.5h3.1v-2.6
	c0-3,1.9-4.7,4.6-4.7c1.3,0,2.4,0.1,2.7,0.1V10.2z"/>
</svg>
