<?xml version="1.0" encoding="utf-8"?>
<!-- Generator: Adobe Illustrator 19.0.0, SVG Export Plug-In . SVG Version: 6.00 Build 0)  -->
<svg version="1.1" id="Layer_1" xmlns="http://www.w3.org/2000/svg" xmlns:xlink="http://www.w3.org/1999/xlink" x="0px" y="0px"
	 viewBox="0 0 68.7 60.9" style="enable-background:new 0 0 68.7 60.9;" xml:space="preserve">
<style type="text/css">
	.st0{clip-path:url(#XMLID_28_);fill:#42403F;}
	.st1{clip-path:url(#XMLID_28_);fill:#C53924;}
	.st2{fill:#42403F;}
</style>
<g id="XMLID_2788_">
	<g id="XMLID_2796_">
		<defs>
			<rect id="XMLID_2823_" x="-14.7" y="-14.9" width="93.2" height="71.8"/>
		</defs>
		<clipPath id="XMLID_28_">
			<use xlink:href="#XMLID_2823_"  style="overflow:visible;"/>
		</clipPath>
		<path id="XMLID_2959_" class="st0" d="M100,103.5l12.4-21.6L100,60.2H31.8c1.3-0.5,2.3-1.7,2.3-3.3c0-1.5-1-2.8-2.4-3.3v-0.1
			c0.6-5.3,3.5-6.9,3.8-7l1,0c0.2,0,0.4,0,0.7,0l0.3,0v0c0.9-0.1,1.9-0.3,2.8-0.6c6.5-2.2,10-9.3,7.8-15.8c-1.2-3.4-3.7-6-6.8-7.3v0
			L18.6,11.9c-0.1,0.9-0.2,1.7-0.2,2.5c0,5.1,1.9,8.4,5,10.7c2.6,2,6.3,3,10.3,3.3v2c-4.4-0.3-8.4-1.4-11.5-3.7
			c-3.6-2.6-5.8-6.8-5.8-12.4c0-1.1,0.1-2.2,0.3-3.4l-3.4-1.6c0,0-3,12,5.6,20.4c6,4.9,14.2,4,14.2,4s-7,4.4-17,0L-0.1,46.5l29.6,0
			v7.2c-1.4,0.5-2.3,1.8-2.3,3.3c0,1.5,1,2.8,2.3,3.3h-79.7l12.4,21.5l-12.4,21.8h79.8v3.7c-1.4,0.5-2.4,1.7-2.4,3.3
			c0,1.9,1.6,3.5,3.5,3.5c1.9,0,3.5-1.6,3.5-3.5c0-1.5-1-2.8-2.4-3.3v-3.7H100z M-46.6,101.4l11.2-19.7l-11.2-19.5H98.8L110,81.9
			l-11.2,19.5H-46.6z M45.2,23.4c4.3,0,8-2.6,9.6-6.3h-7.5c-2.3,0-4.3-1.9-4.3-4.2c0-2.3,1.9-4.2,4.3-4.2h7.5
			c-1.6-3.7-5.3-6.3-9.6-6.3c-5.8,0-10.5,4.7-10.5,10.5C34.7,18.7,39.4,23.4,45.2,23.4z"/>
		<path id="XMLID_2958_" class="st0" d="M55.7,12.9c0-1.5-0.3-2.9-0.9-4.2v0l13.4,4.2l-13.4,4.2C55.4,15.8,55.7,14.4,55.7,12.9z"/>
		<path id="XMLID_2957_" class="st0" d="M52.1,13.9c-0.6,0-1-0.5-1-1c0-0.6,0.5-1,1-1h1c-0.4-1-1.3-1.7-2.4-1.7
			c-1.5,0-2.6,1.2-2.6,2.6c0,1.4,1.2,2.6,2.6,2.6c1,0,1.9-0.6,2.3-1.5H52.1z"/>
		<path id="XMLID_2956_" class="st1" d="M54.8,8.6c-3-6.5-9.3-6.2-9.3-6.2c-6.3-0.1-10.1,2.1-13.4-2.1c-1.2,4.8,0.7,7.2,3.5,8.3
			C35.7,8.6,54.8,8.6,54.8,8.6z"/>
		<path id="XMLID_2955_" class="st1" d="M48.4,34.4c0.1,0,0.2,0,0.3,0c-0.2,5-3.4,9.6-8.4,11.4c-0.9,0.3-1.9,0.5-2.8,0.6v0l-0.3,0
			c-0.2,0-0.4,0-0.7,0h-0.9C36,39.8,41.5,34.4,48.4,34.4z"/>
		<path id="XMLID_2826_" class="st1" d="M97.7,64H-43.5l10.3,17.7l-10.2,18H97.8L108,81.9L97.7,64z M-7,85.4
			c-0.4,0.9-0.9,1.8-1.7,2.4c-0.7,0.7-1.5,1.2-2.5,1.6c-1,0.4-2,0.6-3.1,0.6c-1.1,0-2.2,0-3.3,0c-1.1,0-2.1-0.1-3.2-0.1
			c-0.1,0-0.4,0-1,0c-0.5,0-1.1,0-1.6,0c-0.6,0-1.1,0-1.6,0c-0.5,0-0.8,0-1,0c0-0.3,0-0.6,0-0.8c0-0.3,0-0.5,0.1-0.8
			c0.2-0.1,0.5-0.2,0.7-0.2c0.2-0.1,0.5-0.2,0.7-0.3c0.4-0.1,0.8-0.3,1-0.6c0.2-0.2,0.4-0.6,0.5-1.2l1.7-13.8c0-0.4,0-0.8,0-1
			c-0.1-0.3-0.4-0.5-0.9-0.6l-1.5-0.5l0.4-1.7c1.1,0,2.3,0,3.7,0h7.7c0.5,0,1,0,1.5,0c0.5,0,1,0,1.5,0h0.4c0.1,0,0.3,0,0.5,0
			c0,0,0.1,0.1,0.1,0.1c0,0,0.1,0,0.1,0.1c-0.1,1-0.2,2-0.3,3.1c-0.1,1-0.2,2-0.3,3l-1.4,0.2l-0.6-2.4c-0.1-0.5-0.3-0.8-0.5-0.9
			c-0.2-0.2-0.6-0.2-1.2-0.3l-4.5-0.1l-0.7,5.4c0.2,0,0.5,0,0.7-0.1c0.3,0,0.6-0.1,0.9-0.1c0.3,0,0.6,0,0.9,0c0.3,0,0.6,0,0.8,0
			c2.5,0,4.4,0.5,5.7,1.6c1.2,1.1,1.8,2.5,1.8,4.4C-6.4,83.4-6.6,84.4-7,85.4z M7.8,89.7c-0.7,0.4-1.4,0.6-2.1,0.6
			c-0.8,0-1.4-0.2-1.8-0.6c-0.4-0.4-0.6-1.1-0.7-2.1c-0.1-0.9-0.2-2.1-0.3-3.5c-0.1-1.4-0.2-2.9-0.3-4.3H2.4
			c-0.9,1.7-1.7,3.4-2.5,5.1c-0.8,1.7-1.6,3.2-2.3,4.6c-0.1,0.2-0.2,0.4-0.3,0.5C-2.8,90-3,90.1-3.4,90.1c-0.5,0-1,0-1.4,0.1
			c-0.4,0-0.8,0.1-1.2,0.1c0,0-0.1-0.1-0.2-0.2c-0.1-0.1-0.1-0.2-0.3-0.4c1.4-2.3,2.9-4.7,4.3-7c1.4-2.3,2.9-4.7,4.3-7.1
			c0.1-0.1,0.2-0.3,0.3-0.4c0.1-0.1,0.2-0.2,0.4-0.2c0.4-0.1,0.9-0.2,1.3-0.2c0.5-0.1,0.9-0.1,1.3-0.2c0.3,0.1,0.4,0.2,0.5,0.3
			c0.1,1,0.1,2.1,0.2,3.3c0.1,1.2,0.2,2.4,0.3,3.6c0.1,1,0.2,2,0.3,3c0.1,0.9,0.2,1.8,0.3,2.5c0.4-0.1,0.7-0.2,0.9-0.3
			c0.3-0.1,0.6-0.2,0.9-0.4c0.1,0.2,0.3,0.5,0.4,0.7c0.1,0.2,0.3,0.4,0.4,0.7C9.2,88.7,8.5,89.3,7.8,89.7z M26.7,89.6
			c-0.9,0.4-1.7,0.6-2.4,0.6c-0.8,0-1.4-0.2-1.8-0.5c-0.4-0.3-0.6-0.8-0.6-1.5c0-0.4,0-1,0.1-1.6c0.1-0.6,0.2-1.2,0.3-1.9h-0.1
			c-0.4,0.6-0.9,1.2-1.4,1.9c-0.5,0.6-1.1,1.2-1.7,1.8c-0.6,0.5-1.2,1-1.9,1.3c-0.7,0.3-1.4,0.5-2,0.5c-0.8,0-1.5-0.2-1.9-0.7
			c-0.5-0.4-0.7-1.1-0.7-1.9c0-0.4,0-0.9,0.1-1.7c0.1-0.7,0.2-1.6,0.4-2.5c0.2-0.9,0.3-1.9,0.5-3c0.2-1.1,0.4-2.1,0.6-3.1h0
			c-0.4,0-0.8,0.1-1.2,0.2c-0.4,0.1-0.8,0.3-1.2,0.5L10.9,77c0.7-0.8,1.6-1.4,2.5-1.9c0.9-0.5,1.8-0.7,2.6-0.7
			c0.8,0,1.4,0.2,1.7,0.6c0.4,0.4,0.5,1,0.5,1.8c0,0.3-0.1,0.7-0.2,1.2c-0.1,0.5-0.2,1.1-0.3,1.6c-0.1,0.6-0.2,1.2-0.3,1.9
			c-0.1,0.6-0.2,1.2-0.3,1.8c-0.1,0.6-0.2,1.1-0.2,1.5c-0.1,0.4-0.1,0.8-0.1,1c0,0.3,0.1,0.5,0.2,0.7c0.1,0.2,0.3,0.3,0.6,0.3
			c0.3,0,0.7-0.2,1.1-0.5c0.4-0.4,0.9-0.8,1.3-1.3c0.4-0.5,0.8-1,1.1-1.6c0.3-0.5,0.6-0.9,0.8-1.3c0.2-0.3,0.3-0.6,0.5-0.9
			c0.2-0.3,0.3-0.6,0.4-0.8c0.1-0.1,0.1-0.4,0.2-0.8c0.1-0.4,0.2-0.8,0.3-1.3c0.1-0.5,0.2-0.9,0.2-1.4c0.1-0.5,0.1-0.9,0.2-1.2
			c0-0.2,0.1-0.3,0.2-0.5c0.1-0.1,0.3-0.2,0.6-0.2c0.5-0.1,1.1-0.2,1.6-0.3c0.5-0.1,1-0.2,1.3-0.3c0.1,0,0.2,0.1,0.3,0.1
			c0.1,0.1,0.2,0.1,0.2,0.3c-0.2,1.1-0.4,2.1-0.5,3.1c-0.2,0.9-0.3,1.8-0.5,2.8c-0.1,0.9-0.3,1.9-0.5,3c-0.2,1-0.3,2.2-0.5,3.6
			c0.3,0,0.6-0.1,1-0.2c0.4-0.1,0.8-0.3,1.2-0.5l0.9,1.3C28.4,88.6,27.5,89.2,26.7,89.6z M43.1,82.8c0.5,0.6,0.7,1.3,0.7,1.9
			c0,0.8-0.3,1.6-0.8,2.3c-0.6,0.7-1.3,1.3-2.1,1.8c-0.9,0.5-1.9,0.9-3,1.2c-1.1,0.3-2.2,0.4-3.2,0.4c-0.9,0-1.7-0.1-2.3-0.3
			c-0.6-0.2-1.1-0.4-1.4-0.6c-0.4-0.2-0.6-0.5-0.8-0.8c-0.2-0.3-0.2-0.6-0.2-0.8c0-0.2,0.1-0.4,0.2-0.7c0.1-0.2,0.3-0.5,0.6-0.7
			c0.3-0.2,0.6-0.4,1-0.6c0.4-0.2,1-0.3,1.6-0.3c0.1,0.9,0.4,1.6,0.9,1.9c0.5,0.4,1,0.6,1.6,0.6c0.6,0,1.1-0.1,1.6-0.3
			c0.5-0.2,0.8-0.4,1.1-0.7c0.3-0.3,0.5-0.7,0.7-1c0.2-0.4,0.2-0.8,0.2-1.2c0-0.6-0.3-1-0.9-1.4c-0.6-0.4-1.5-0.6-2.7-0.6h-1.4
			l-0.3-1.7l0.3-0.3c1,0,1.9-0.1,2.6-0.3c0.7-0.2,1.2-0.4,1.7-0.6c0.4-0.2,0.7-0.5,0.9-0.8c0.2-0.3,0.3-0.6,0.3-0.8
			c0-0.4-0.2-0.7-0.5-1C39.2,77.1,38.7,77,38,77c-0.6,0-1.4,0.1-2.2,0.3c-0.8,0.2-1.7,0.5-2.7,0.9l-0.9-1.6c0.6-0.4,1.3-0.8,1.9-1.1
			c0.6-0.3,1.3-0.5,1.9-0.7c0.6-0.2,1.2-0.3,1.7-0.4c0.5-0.1,1-0.1,1.5-0.1c1,0,1.8,0.1,2.4,0.3c0.6,0.2,1.2,0.4,1.6,0.8
			c0.4,0.3,0.7,0.7,0.9,1.1c0.2,0.4,0.3,0.8,0.3,1.2c0,0.7-0.3,1.4-1,2.2c-0.6,0.7-1.5,1.2-2.6,1.5C41.8,81.7,42.6,82.1,43.1,82.8z
			 M61.5,93.8c-2.4-1-4.3-4-5.7-6.6c-0.1-0.2-0.3-0.5-0.4-0.8c-1.1-2.2-1.7-4-1.7-4c-0.4,0.4-0.6,0.8-0.8,1.1
			c-0.2,0.3-0.4,0.8-0.5,1.3L51.8,89c0,0.2-0.1,0.3-0.2,0.4c-0.1,0.1-0.3,0.2-0.6,0.3c-0.5,0.1-1,0.2-1.6,0.3
			c-0.6,0.1-1,0.2-1.4,0.3c-0.1,0-0.2-0.1-0.3-0.1c-0.1-0.1-0.2-0.1-0.2-0.3c0.5-2.8,0.9-5.2,1.2-7.3c0.3-2.1,0.6-3.9,0.7-5.2
			c-0.3,0-0.7,0.1-1,0.2c-0.3,0.1-0.7,0.2-1.1,0.4l-0.8-1.3c0.8-0.8,1.6-1.4,2.5-1.8c0.9-0.4,1.7-0.6,2.4-0.6c0.7,0,1.3,0.2,1.7,0.5
			c0.4,0.3,0.6,0.8,0.6,1.6c0,0.2,0,0.4,0,0.8c0,0.3-0.1,0.7-0.1,1c-0.1,0.4-0.1,0.8-0.2,1.2c-0.1,0.4-0.2,0.8-0.2,1.2l0.1,0
			c0.5-0.8,1.1-1.6,1.7-2.3c0.6-0.7,1.3-1.4,1.9-1.9c0.7-0.6,1.3-1,2-1.3c0.7-0.3,1.4-0.5,2-0.5c0.8,0,1.4,0.2,1.8,0.5
			c0.5,0.3,0.7,0.8,0.7,1.4c0,0.1,0,0.3-0.1,0.5c-0.1,0.2-0.1,0.4-0.3,0.6c-0.1,0.2-0.3,0.5-0.5,0.7c-0.2,0.2-0.5,0.4-0.9,0.6
			c-0.3-0.5-0.6-0.9-1-1.1c-0.4-0.2-0.8-0.3-1.2-0.3c-0.5,0-1,0.2-1.5,0.5c-0.5,0.4-1,0.8-1.5,1.4c0.3,0.9,0.7,1.8,1.1,2.7
			c0,0.1,0.1,0.1,0.1,0.2c2.5,6.1,5.7,11.9,12.5,11.1C67.4,95.1,64,94.8,61.5,93.8z M77.8,84.3c-0.4,1.2-1,2.3-1.8,3.1
			c-0.8,0.9-1.8,1.6-2.9,2.1c-1.1,0.5-2.4,0.7-3.9,0.7c-1.9,0-3.3-0.5-4.3-1.6c-1-1.1-1.5-2.5-1.5-4.3c0-1.5,0.3-2.9,0.8-4.1
			c0.5-1.2,1.2-2.2,2-3.1c0.8-0.9,1.8-1.5,2.9-2c1.1-0.5,2.3-0.7,3.5-0.7c1,0,1.8,0.1,2.5,0.4c0.7,0.3,1.3,0.7,1.8,1.2
			c0.5,0.5,0.9,1.1,1.1,1.8c0.3,0.7,0.4,1.5,0.4,2.4C78.4,81.8,78.2,83.1,77.8,84.3z M92.2,80.1c-0.4,0.6-1,1.1-1.8,1.6
			c-0.7,0.5-1.6,0.9-2.6,1.3c-1,0.4-2.1,0.7-3.2,1c0,0.2,0,0.3,0,0.5v0.4c0,0.4,0,0.7,0.1,1.1c0.1,0.3,0.2,0.6,0.3,0.9
			c0.1,0.3,0.3,0.5,0.5,0.6c0.2,0.2,0.5,0.2,0.8,0.2c0.8,0,1.5-0.2,2.3-0.6c0.8-0.4,1.6-1,2.5-1.7l1.1,1.2c-0.3,0.4-0.7,0.8-1.2,1.3
			c-0.5,0.5-1,0.9-1.7,1.2c-0.6,0.4-1.3,0.7-2,0.9c-0.7,0.3-1.5,0.4-2.2,0.4c-1.5,0-2.7-0.4-3.5-1.3c-0.8-0.9-1.2-2.2-1.2-4
			c0-0.9,0.1-1.9,0.4-3c0.3-1.1,0.6-2.1,1.1-2.9c0.3-0.5,0.7-1,1.2-1.6c0.5-0.5,1.2-1,1.8-1.5c0.7-0.4,1.4-0.8,2.1-1.1
			c0.8-0.3,1.5-0.4,2.2-0.4c1.1,0,2,0.4,2.7,1.1c0.6,0.7,1,1.6,1,2.7C92.8,78.9,92.6,79.5,92.2,80.1z M88,76.9
			c-0.7,0-1.3,0.5-1.9,1.4c-0.6,0.9-1,2.2-1.2,3.9l0,0.1c0.5-0.1,1-0.3,1.6-0.5c0.5-0.2,1-0.5,1.4-0.8c0.4-0.3,0.8-0.6,1-1
			c0.3-0.4,0.4-0.8,0.4-1.3c0-0.5-0.2-1-0.5-1.3C88.6,77,88.3,76.9,88,76.9z M-15.4,79c-0.8,0-1.5,0.1-2.3,0.2
			c-0.1,1.1-0.3,2.1-0.4,3.1c-0.1,1-0.2,2.1-0.4,3.1c0,0.1,0,0.1,0,0.2c0,0,0,0.1,0,0.1c0,0.6,0.2,1,0.7,1.1c0.4,0.2,1,0.3,1.8,0.3
			c0.8,0,1.6-0.1,2.2-0.4c0.6-0.2,1.1-0.6,1.6-1c0.4-0.4,0.7-0.9,0.9-1.5c0.2-0.6,0.3-1.2,0.3-1.8c0-1.1-0.4-1.9-1.1-2.6
			C-12.8,79.4-13.9,79-15.4,79z M71.8,76.6c-0.6,0-1.2,0.2-1.7,0.6c-0.5,0.4-0.9,0.9-1.3,1.6c-0.3,0.7-0.6,1.5-0.8,2.4
			c-0.2,0.9-0.3,1.8-0.3,2.9c0,1.2,0.2,2.2,0.5,3c0.3,0.7,0.9,1.1,1.8,1.1c0.6,0,1.2-0.2,1.7-0.6c0.5-0.4,0.9-1,1.3-1.6
			c0.3-0.7,0.6-1.5,0.8-2.4c0.2-0.9,0.3-1.9,0.3-3c0-1.2-0.2-2.2-0.6-2.8C73.1,77,72.5,76.6,71.8,76.6z"/>
	</g>
	<circle id="XMLID_2789_" class="st2" cx="30.7" cy="57" r="3.9"/>
</g>
</svg>
