<?xml version="1.0" encoding="utf-8"?>
<!-- Generator: Adobe Illustrator 19.0.0, SVG Export Plug-In . SVG Version: 6.00 Build 0)  -->
<svg version="1.1" id="Layer_1" xmlns="http://www.w3.org/2000/svg" xmlns:xlink="http://www.w3.org/1999/xlink" x="0px" y="0px"
	 viewBox="0 0 42.7 41.9" style="enable-background:new 0 0 42.7 41.9;" xml:space="preserve">
<style type="text/css">
	.st0{fill:#FFFFFF;}
</style>
<g id="XMLID_144_">
	<path id="XMLID_153_" class="st0" d="M42.7,39.1l-7.2-7.2c2.6-3.3,4.1-7.5,4.1-12.1C39.7,8.9,30.8,0,19.8,0S0,8.9,0,19.8
		s8.9,19.8,19.8,19.8c5,0,9.5-1.8,13-4.9l7.1,7.1L42.7,39.1z M19.8,35.7C11.1,35.7,4,28.6,4,19.8S11.1,4,19.8,4s15.8,7.1,15.8,15.8
		S28.6,35.7,19.8,35.7z"/>
	<polygon id="XMLID_154_" class="st0" points="22.6,11.5 18.6,11.5 18.6,17.8 12.2,17.8 12.2,21.8 18.6,21.8 18.6,28.2 22.6,28.2 
		22.6,21.8 28.9,21.8 28.9,17.8 22.6,17.8 	"/>
</g>
</svg>
