<?xml version="1.0" encoding="utf-8"?>
<!-- Generator: Adobe Illustrator 19.0.0, SVG Export Plug-In . SVG Version: 6.00 Build 0)  -->
<svg version="1.1" id="Layer_1" xmlns="http://www.w3.org/2000/svg" xmlns:xlink="http://www.w3.org/1999/xlink" x="0px" y="0px"
	 viewBox="0 0 68.5 120" style="enable-background:new 0 0 68.5 120;" xml:space="preserve">
<style type="text/css">
	.st0{clip-path:url(#XMLID_151_);fill:#42403F;}
	.st1{clip-path:url(#XMLID_151_);fill:#C53924;}
	.st2{fill:#42403F;}
	.st3{fill:#FFFFFF;}
</style>
<g id="XMLID_716_">
	<g id="XMLID_719_">
		<defs>
			<rect id="XMLID_720_" x="-14.6" y="-15.4" width="93.2" height="71.8"/>
		</defs>
		<clipPath id="XMLID_151_">
			<use xlink:href="#XMLID_720_"  style="overflow:visible;"/>
		</clipPath>
		<path id="XMLID_738_" class="st0" d="M100.1,103l12.4-21.6l-12.4-21.7H31.9c1.3-0.5,2.3-1.7,2.3-3.3c0-1.5-1-2.8-2.4-3.3V53
			c0.6-5.3,3.5-6.9,3.8-7l1,0c0.2,0,0.4,0,0.7,0l0.3,0v0c0.9-0.1,1.9-0.3,2.8-0.6c6.5-2.2,10-9.3,7.8-15.8c-1.2-3.4-3.7-6-6.8-7.3v0
			L18.7,11.4c-0.1,0.9-0.2,1.7-0.2,2.5c0,5.1,1.9,8.4,5,10.7c2.6,2,6.3,3,10.3,3.3v2c-4.4-0.3-8.4-1.4-11.5-3.7
			c-3.6-2.6-5.8-6.8-5.8-12.4c0-1.1,0.1-2.2,0.3-3.4l-3.4-1.6c0,0-3,12,5.6,20.4c6,4.9,14.2,4,14.2,4s-7,4.4-17,0L0,46l29.6,0v7.2
			c-1.4,0.5-2.3,1.8-2.3,3.3c0,1.5,1,2.8,2.3,3.3h-79.7l12.4,21.5L-50.1,103h79.8v3.7c-1.4,0.5-2.4,1.7-2.4,3.3
			c0,1.9,1.6,3.5,3.5,3.5c1.9,0,3.5-1.6,3.5-3.5c0-1.5-1-2.8-2.4-3.3V103H100.1z M-46.5,100.9l11.2-19.7l-11.2-19.5H98.9l11.2,19.6
			l-11.2,19.5H-46.5z M45.3,23c4.3,0,8-2.6,9.6-6.3h-7.5c-2.3,0-4.3-1.9-4.3-4.2c0-2.3,1.9-4.2,4.3-4.2h7.5
			c-1.6-3.7-5.3-6.3-9.6-6.3c-5.8,0-10.5,4.7-10.5,10.5C34.8,18.2,39.5,23,45.3,23z"/>
		<path id="XMLID_737_" class="st0" d="M55.9,12.4c0-1.5-0.3-2.9-0.9-4.2v0l13.4,4.2L55,16.7C55.5,15.4,55.9,13.9,55.9,12.4z"/>
		<path id="XMLID_736_" class="st0" d="M52.2,13.4c-0.6,0-1-0.5-1-1c0-0.6,0.5-1,1-1h1c-0.4-1-1.3-1.7-2.4-1.7
			c-1.5,0-2.6,1.2-2.6,2.6c0,1.4,1.2,2.6,2.6,2.6c1,0,1.9-0.6,2.3-1.5H52.2z"/>
		<path id="XMLID_735_" class="st1" d="M54.9,8.2c-3-6.5-9.3-6.2-9.3-6.2C39.4,1.9,35.5,4,32.3-0.1C31.1,4.7,33,7,35.8,8.2
			C35.8,8.1,54.9,8.2,54.9,8.2z"/>
		<path id="XMLID_734_" class="st1" d="M48.5,34c0.1,0,0.2,0,0.3,0c-0.2,5-3.4,9.6-8.4,11.4c-0.9,0.3-1.9,0.5-2.8,0.6v0l-0.3,0
			c-0.2,0-0.4,0-0.7,0h-0.9C36.1,39.3,41.6,34,48.5,34z"/>
		<path id="XMLID_721_" class="st1" d="M97.8,63.5H-43.4l10.3,17.7l-10.2,18H97.9l10.2-17.8L97.8,63.5z M-6.9,84.9
			c-0.4,0.9-0.9,1.8-1.7,2.4c-0.7,0.7-1.5,1.2-2.5,1.6c-1,0.4-2,0.6-3.1,0.6c-1.1,0-2.2,0-3.3,0c-1.1,0-2.1-0.1-3.2-0.1
			c-0.1,0-0.4,0-1,0c-0.5,0-1.1,0-1.6,0c-0.6,0-1.1,0-1.6,0c-0.5,0-0.8,0-1,0c0-0.3,0-0.6,0-0.8c0-0.3,0-0.5,0.1-0.8
			c0.2-0.1,0.5-0.2,0.7-0.2c0.2-0.1,0.5-0.2,0.7-0.3c0.4-0.1,0.8-0.3,1-0.6c0.2-0.2,0.4-0.6,0.5-1.2l1.7-13.8c0-0.4,0-0.8,0-1
			c-0.1-0.3-0.4-0.5-0.9-0.6l-1.5-0.5l0.4-1.7c1.1,0,2.3,0,3.7,0h7.7c0.5,0,1,0,1.5,0c0.5,0,1,0,1.5,0h0.4c0.1,0,0.3,0,0.5,0
			c0,0,0.1,0.1,0.1,0.1c0,0,0.1,0,0.1,0.1C-7.8,69-7.9,70-8,71c-0.1,1-0.2,2-0.3,3l-1.4,0.2l-0.6-2.4c-0.1-0.5-0.3-0.8-0.5-0.9
			c-0.2-0.2-0.6-0.2-1.2-0.3l-4.5-0.1l-0.7,5.4c0.2,0,0.5,0,0.7-0.1c0.3,0,0.6-0.1,0.9-0.1c0.3,0,0.6,0,0.9,0c0.3,0,0.6,0,0.8,0
			c2.5,0,4.4,0.5,5.7,1.6c1.2,1.1,1.8,2.5,1.8,4.4C-6.3,82.9-6.5,84-6.9,84.9z M7.9,89.2c-0.7,0.4-1.4,0.6-2.1,0.6
			c-0.8,0-1.4-0.2-1.8-0.6c-0.4-0.4-0.6-1.1-0.7-2.1C3.2,86.2,3.1,85,3,83.6c-0.1-1.4-0.2-2.9-0.3-4.3H2.5C1.7,81,0.8,82.7,0,84.4
			c-0.8,1.7-1.6,3.2-2.3,4.6c-0.1,0.2-0.2,0.4-0.3,0.5c-0.1,0.1-0.3,0.1-0.7,0.1c-0.5,0-1,0-1.4,0.1c-0.4,0-0.8,0.1-1.2,0.1
			c0,0-0.1-0.1-0.2-0.2c-0.1-0.1-0.1-0.2-0.3-0.4c1.4-2.3,2.9-4.7,4.3-7c1.4-2.3,2.9-4.7,4.3-7.1c0.1-0.1,0.2-0.3,0.3-0.4
			c0.1-0.1,0.2-0.2,0.4-0.2c0.4-0.1,0.9-0.2,1.3-0.2c0.5-0.1,0.9-0.1,1.3-0.2c0.3,0.1,0.4,0.2,0.5,0.3c0.1,1,0.1,2.1,0.2,3.3
			c0.1,1.2,0.2,2.4,0.3,3.6c0.1,1,0.2,2,0.3,3c0.1,0.9,0.2,1.8,0.3,2.5c0.4-0.1,0.7-0.2,0.9-0.3c0.3-0.1,0.6-0.2,0.9-0.4
			c0.1,0.2,0.3,0.5,0.4,0.7c0.1,0.2,0.3,0.4,0.4,0.7C9.3,88.2,8.6,88.8,7.9,89.2z M26.8,89.1c-0.9,0.4-1.7,0.6-2.4,0.6
			c-0.8,0-1.4-0.2-1.8-0.5c-0.4-0.3-0.6-0.8-0.6-1.5c0-0.4,0-1,0.1-1.6c0.1-0.6,0.2-1.2,0.3-1.9h-0.1c-0.4,0.6-0.9,1.2-1.4,1.9
			c-0.5,0.6-1.1,1.2-1.7,1.8c-0.6,0.5-1.2,1-1.9,1.3c-0.7,0.3-1.4,0.5-2,0.5c-0.8,0-1.5-0.2-1.9-0.7c-0.5-0.4-0.7-1.1-0.7-1.9
			c0-0.4,0-0.9,0.1-1.7c0.1-0.7,0.2-1.6,0.4-2.5c0.2-0.9,0.3-1.9,0.5-3c0.2-1.1,0.4-2.1,0.6-3.1h0c-0.4,0-0.8,0.1-1.2,0.2
			c-0.4,0.1-0.8,0.3-1.2,0.5L11,76.5c0.7-0.8,1.6-1.4,2.5-1.9c0.9-0.5,1.8-0.7,2.6-0.7c0.8,0,1.4,0.2,1.7,0.6c0.4,0.4,0.5,1,0.5,1.8
			c0,0.3-0.1,0.7-0.2,1.2c-0.1,0.5-0.2,1.1-0.3,1.6c-0.1,0.6-0.2,1.2-0.3,1.9c-0.1,0.6-0.2,1.2-0.3,1.8c-0.1,0.6-0.2,1.1-0.2,1.5
			c-0.1,0.4-0.1,0.8-0.1,1c0,0.3,0.1,0.5,0.2,0.7c0.1,0.2,0.3,0.3,0.6,0.3c0.3,0,0.7-0.2,1.1-0.5c0.4-0.4,0.9-0.8,1.3-1.3
			c0.4-0.5,0.8-1,1.1-1.6c0.3-0.5,0.6-0.9,0.8-1.3c0.2-0.3,0.3-0.6,0.5-0.9c0.2-0.3,0.3-0.6,0.4-0.8c0.1-0.1,0.1-0.4,0.2-0.8
			c0.1-0.4,0.2-0.8,0.3-1.3c0.1-0.5,0.2-0.9,0.2-1.4c0.1-0.5,0.1-0.9,0.2-1.2c0-0.2,0.1-0.3,0.2-0.5c0.1-0.1,0.3-0.2,0.6-0.2
			c0.5-0.1,1.1-0.2,1.6-0.3c0.5-0.1,1-0.2,1.3-0.3c0.1,0,0.2,0.1,0.3,0.1c0.1,0.1,0.2,0.1,0.2,0.3c-0.2,1.1-0.4,2.1-0.5,3.1
			c-0.2,0.9-0.3,1.8-0.5,2.8c-0.1,0.9-0.3,1.9-0.5,3c-0.2,1-0.3,2.2-0.5,3.6c0.3,0,0.6-0.1,1-0.2c0.4-0.1,0.8-0.3,1.2-0.5l0.9,1.3
			C28.5,88.1,27.6,88.7,26.8,89.1z M43.2,82.3c0.5,0.6,0.7,1.3,0.7,1.9c0,0.8-0.3,1.6-0.8,2.3c-0.6,0.7-1.3,1.3-2.1,1.8
			c-0.9,0.5-1.9,0.9-3,1.2c-1.1,0.3-2.2,0.4-3.2,0.4c-0.9,0-1.7-0.1-2.3-0.3c-0.6-0.2-1.1-0.4-1.4-0.6c-0.4-0.2-0.6-0.5-0.8-0.8
			c-0.2-0.3-0.2-0.6-0.2-0.8c0-0.2,0.1-0.4,0.2-0.7c0.1-0.2,0.3-0.5,0.6-0.7c0.3-0.2,0.6-0.4,1-0.6c0.4-0.2,1-0.3,1.6-0.3
			c0.1,0.9,0.4,1.6,0.9,1.9c0.5,0.4,1,0.6,1.6,0.6c0.6,0,1.1-0.1,1.6-0.3c0.5-0.2,0.8-0.4,1.1-0.7c0.3-0.3,0.5-0.7,0.7-1
			c0.2-0.4,0.2-0.8,0.2-1.2c0-0.6-0.3-1-0.9-1.4c-0.6-0.4-1.5-0.6-2.7-0.6h-1.4l-0.3-1.7l0.3-0.3c1,0,1.9-0.1,2.6-0.3
			c0.7-0.2,1.2-0.4,1.7-0.6c0.4-0.2,0.7-0.5,0.9-0.8c0.2-0.3,0.3-0.6,0.3-0.8c0-0.4-0.2-0.7-0.5-1c-0.3-0.3-0.8-0.4-1.5-0.4
			c-0.6,0-1.4,0.1-2.2,0.3c-0.8,0.2-1.7,0.5-2.7,0.9l-0.9-1.6c0.6-0.4,1.3-0.8,1.9-1.1c0.6-0.3,1.3-0.5,1.9-0.7
			c0.6-0.2,1.2-0.3,1.7-0.4c0.5-0.1,1-0.1,1.5-0.1c1,0,1.8,0.1,2.4,0.3c0.6,0.2,1.2,0.4,1.6,0.8c0.4,0.3,0.7,0.7,0.9,1.1
			c0.2,0.4,0.3,0.8,0.3,1.2c0,0.7-0.3,1.4-1,2.2c-0.6,0.7-1.5,1.2-2.6,1.5C41.9,81.2,42.7,81.6,43.2,82.3z M61.7,93.3
			c-2.4-1-4.3-4-5.7-6.6c-0.1-0.2-0.3-0.5-0.4-0.8c-1.1-2.2-1.7-4-1.7-4c-0.4,0.4-0.6,0.8-0.8,1.1c-0.2,0.3-0.4,0.8-0.5,1.3
			l-0.7,4.3c0,0.2-0.1,0.3-0.2,0.4c-0.1,0.1-0.3,0.2-0.6,0.3c-0.5,0.1-1,0.2-1.6,0.3c-0.6,0.1-1,0.2-1.4,0.3c-0.1,0-0.2-0.1-0.3-0.1
			c-0.1-0.1-0.2-0.1-0.2-0.3c0.5-2.8,0.9-5.2,1.2-7.3c0.3-2.1,0.6-3.9,0.7-5.2c-0.3,0-0.7,0.1-1,0.2c-0.3,0.1-0.7,0.2-1.1,0.4
			l-0.8-1.3c0.8-0.8,1.6-1.4,2.5-1.8c0.9-0.4,1.7-0.6,2.4-0.6c0.7,0,1.3,0.2,1.7,0.5c0.4,0.3,0.6,0.8,0.6,1.6c0,0.2,0,0.4,0,0.8
			c0,0.3-0.1,0.7-0.1,1c-0.1,0.4-0.1,0.8-0.2,1.2c-0.1,0.4-0.2,0.8-0.2,1.2l0.1,0c0.5-0.8,1.1-1.6,1.7-2.3c0.6-0.7,1.3-1.4,1.9-1.9
			c0.7-0.6,1.3-1,2-1.3c0.7-0.3,1.4-0.5,2-0.5c0.8,0,1.4,0.2,1.8,0.5c0.5,0.3,0.7,0.8,0.7,1.4c0,0.1,0,0.3-0.1,0.5
			c-0.1,0.2-0.1,0.4-0.3,0.6c-0.1,0.2-0.3,0.5-0.5,0.7c-0.2,0.2-0.5,0.4-0.9,0.6c-0.3-0.5-0.6-0.9-1-1.1c-0.4-0.2-0.8-0.3-1.2-0.3
			c-0.5,0-1,0.2-1.5,0.5c-0.5,0.4-1,0.8-1.5,1.4c0.3,0.9,0.7,1.8,1.1,2.7c0,0.1,0.1,0.1,0.1,0.2c2.5,6.1,5.7,11.9,12.5,11.1
			C67.5,94.7,64.1,94.3,61.7,93.3z M77.9,83.8c-0.4,1.2-1,2.3-1.8,3.1c-0.8,0.9-1.8,1.6-2.9,2.1c-1.1,0.5-2.4,0.7-3.9,0.7
			c-1.9,0-3.3-0.5-4.3-1.6c-1-1.1-1.5-2.5-1.5-4.3c0-1.5,0.3-2.9,0.8-4.1c0.5-1.2,1.2-2.2,2-3.1c0.8-0.9,1.8-1.5,2.9-2
			c1.1-0.5,2.3-0.7,3.5-0.7c1,0,1.8,0.1,2.5,0.4c0.7,0.3,1.3,0.7,1.8,1.2c0.5,0.5,0.9,1.1,1.1,1.8c0.3,0.7,0.4,1.5,0.4,2.4
			C78.5,81.3,78.3,82.6,77.9,83.8z M92.3,79.6c-0.4,0.6-1,1.1-1.8,1.6c-0.7,0.5-1.6,0.9-2.6,1.3c-1,0.4-2.1,0.7-3.2,1
			c0,0.2,0,0.3,0,0.5v0.4c0,0.4,0,0.7,0.1,1.1c0.1,0.3,0.2,0.6,0.3,0.9c0.1,0.3,0.3,0.5,0.5,0.6c0.2,0.2,0.5,0.2,0.8,0.2
			c0.8,0,1.5-0.2,2.3-0.6c0.8-0.4,1.6-1,2.5-1.7l1.1,1.2c-0.3,0.4-0.7,0.8-1.2,1.3c-0.5,0.5-1,0.9-1.7,1.2c-0.6,0.4-1.3,0.7-2,0.9
			c-0.7,0.3-1.5,0.4-2.2,0.4c-1.5,0-2.7-0.4-3.5-1.3c-0.8-0.9-1.2-2.2-1.2-4c0-0.9,0.1-1.9,0.4-3c0.3-1.1,0.6-2.1,1.1-2.9
			c0.3-0.5,0.7-1,1.2-1.6c0.5-0.5,1.2-1,1.8-1.5c0.7-0.4,1.4-0.8,2.1-1.1c0.8-0.3,1.5-0.4,2.2-0.4c1.1,0,2,0.4,2.7,1.1
			c0.6,0.7,1,1.6,1,2.7C92.9,78.4,92.7,79,92.3,79.6z M88.1,76.4c-0.7,0-1.3,0.5-1.9,1.4c-0.6,0.9-1,2.2-1.2,3.9l0,0.1
			c0.5-0.1,1-0.3,1.6-0.5c0.5-0.2,1-0.5,1.4-0.8c0.4-0.3,0.8-0.6,1-1c0.3-0.4,0.4-0.8,0.4-1.3c0-0.5-0.2-1-0.5-1.3
			C88.7,76.5,88.4,76.4,88.1,76.4z M-15.3,78.6c-0.8,0-1.5,0.1-2.3,0.2c-0.1,1.1-0.3,2.1-0.4,3.1c-0.1,1-0.2,2.1-0.4,3.1
			c0,0.1,0,0.1,0,0.2c0,0,0,0.1,0,0.1c0,0.6,0.2,1,0.7,1.1c0.4,0.2,1,0.3,1.8,0.3c0.8,0,1.6-0.1,2.2-0.4c0.6-0.2,1.1-0.6,1.6-1
			c0.4-0.4,0.7-0.9,0.9-1.5c0.2-0.6,0.3-1.2,0.3-1.8c0-1.1-0.4-1.9-1.1-2.6C-12.7,78.9-13.8,78.6-15.3,78.6z M71.9,76.2
			c-0.6,0-1.2,0.2-1.7,0.6c-0.5,0.4-0.9,0.9-1.3,1.6c-0.3,0.7-0.6,1.5-0.8,2.4c-0.2,0.9-0.3,1.8-0.3,2.9c0,1.2,0.2,2.2,0.5,3
			c0.3,0.7,0.9,1.1,1.8,1.1c0.6,0,1.2-0.2,1.7-0.6c0.5-0.4,0.9-1,1.3-1.6c0.3-0.7,0.6-1.5,0.8-2.4c0.2-0.9,0.3-1.9,0.3-3
			c0-1.2-0.2-2.2-0.6-2.8C73.2,76.5,72.6,76.2,71.9,76.2z"/>
	</g>
	<path id="XMLID_718_" class="st2" d="M57.1,79.8c0,14.7-26.7,40.2-26.7,40.2S3.7,94.6,3.7,79.8s12-26.7,26.7-26.7
		S57.1,65.1,57.1,79.8z"/>
	<circle id="XMLID_717_" class="st3" cx="30.9" cy="78.7" r="7.9"/>
</g>
</svg>
